<?xml version="1.0" encoding="UTF-8"?>
<svg version="1.1" xmlns="http://www.w3.org/2000/svg" width="216" height="216">
<path d="M0 0 C71.28 0 142.56 0 216 0 C216 71.28 216 142.56 216 216 C144.72 216 73.44 216 0 216 C0 144.72 0 73.44 0 0 Z " fill="#FEFEFE" transform="translate(0,0)"/>
<path d="M0 0 C1.00454224 -0.00930542 2.00908447 -0.01861084 3.04406738 -0.02819824 C4.11813843 -0.01180298 5.19220947 0.00459229 6.29882812 0.02148438 C7.41189331 0.02144409 8.5249585 0.02140381 9.67175293 0.0213623 C12.0219488 0.02671695 14.37214425 0.04429705 16.72216797 0.07324219 C20.31728909 0.11508552 23.91053586 0.11431041 27.50585938 0.10742188 C29.79102863 0.11791496 32.07618824 0.13085369 34.36132812 0.14648438 C35.43539917 0.14668579 36.50947021 0.14688721 37.61608887 0.14709473 C46.99033331 0.29558198 46.99033331 0.29558198 50.83007812 3.61523438 C52.23465549 6.42438911 52.0790297 8.50333972 51.83007812 11.61523438 C50.05023408 14.75115008 49.30699606 15.45626173 45.83007812 16.61523438 C44.49479006 16.70067729 43.15563925 16.73298062 41.81762695 16.72875977 C41.01702347 16.72868423 40.21641998 16.7286087 39.39155579 16.72853088 C38.53208847 16.7233696 37.67262115 16.71820831 36.78710938 16.71289062 C35.90351242 16.71147568 35.01991547 16.71006073 34.10954285 16.70860291 C31.28718685 16.70300507 28.46491015 16.69045299 25.64257812 16.67773438 C23.72916781 16.67271909 21.81575626 16.66815624 19.90234375 16.6640625 C15.2115334 16.65388721 10.52089455 16.63431135 5.83007812 16.61523438 C5.83007812 25.85523438 5.83007812 35.09523438 5.83007812 44.61523438 C15.73007813 44.61523438 25.63007812 44.61523438 35.83007812 44.61523438 C35.83007812 39.66523437 35.83007812 34.71523437 35.83007812 29.61523438 C40.83007812 24.61523438 40.83007812 24.61523438 43.83007812 23.99023438 C47.92142781 24.84259889 49.25225396 26.35517199 51.83007812 29.61523438 C52.20361627 32.49894888 52.31720666 34.598134 52.14257812 37.42773438 C52.03945312 39.79960938 51.93632813 42.17148438 51.83007812 44.61523438 C60.08007812 44.61523438 68.33007812 44.61523438 76.83007812 44.61523438 C75.51007813 46.26523438 74.19007813 47.91523437 72.83007812 49.61523438 C72.14412949 52.49378898 72.14412949 52.49378898 72.08007812 55.42773438 C71.99757813 57.13960937 71.91507812 58.85148437 71.83007812 60.61523438 C65.23007813 60.61523438 58.63007812 60.61523438 51.83007812 60.61523438 C51.88228516 64.85947266 51.88228516 64.85947266 51.93554688 69.18945312 C51.95895763 71.9364318 51.97716557 74.68339926 51.99487305 77.43041992 C52.0099394 79.33639518 52.03039637 81.24233589 52.05639648 83.14819336 C52.09287454 85.89120013 52.10982604 88.63374765 52.12304688 91.37695312 C52.13853073 92.22609787 52.15401459 93.07524261 52.16996765 93.95011902 C52.1713016 98.66237323 51.91940654 101.7982872 48.83007812 105.61523438 C46.02092339 107.01981174 43.94197278 106.86418595 40.83007812 106.61523438 C37.69416242 104.83539033 36.98905077 104.09215231 35.83007812 100.61523438 C35.74463521 99.27994631 35.71233188 97.9407955 35.71655273 96.6027832 C35.71662827 95.80217972 35.7167038 95.00157623 35.71678162 94.17671204 C35.7219429 93.31724472 35.72710419 92.4577774 35.73242188 91.57226562 C35.73383682 90.68866867 35.73525177 89.80507172 35.73670959 88.8946991 C35.74230743 86.0723431 35.75485951 83.2500664 35.76757812 80.42773438 C35.77259341 78.51432406 35.77715626 76.60091251 35.78125 74.6875 C35.79142529 69.99668965 35.81100115 65.3060508 35.83007812 60.61523438 C25.93007812 60.61523438 16.03007813 60.61523438 5.83007812 60.61523438 C5.83007812 70.51523438 5.83007812 80.41523438 5.83007812 90.61523438 C11.5291298 90.49711073 11.5291298 90.49711073 17.22729492 90.3449707 C21.91611821 90.29606854 25.04019234 90.52800986 28.83007812 93.61523438 C30.23465549 96.42438911 30.0790297 98.50333972 29.83007812 101.61523438 C28.05023408 104.75115008 27.30699606 105.45626173 23.83007812 106.61523438 C19.71884496 106.88647825 15.60776541 106.92837255 11.48828125 106.96533203 C10.13621813 106.98189188 8.78424258 107.00918362 7.43261719 107.04736328 C5.47449273 107.10231309 3.51545533 107.12090037 1.55664062 107.13867188 C-0.197854 107.16840088 -0.197854 107.16840088 -1.98779297 107.19873047 C-6.28606596 106.41057085 -7.5140745 105.06875669 -10.16992188 101.61523438 C-10.89596906 98.51327744 -10.85374976 95.48917325 -10.81689453 92.31445312 C-10.83003693 90.92089096 -10.83003693 90.92089096 -10.84344482 89.49917603 C-10.865422 86.43321809 -10.85089171 83.36870655 -10.83398438 80.30273438 C-10.83735298 78.16951216 -10.84220597 76.03629182 -10.84848022 73.90307617 C-10.8558493 69.4342215 -10.84514454 64.96586683 -10.82177734 60.49707031 C-10.79329001 54.77009788 -10.80969373 49.044297 -10.83963966 43.31736755 C-10.85771142 38.91295552 -10.85195506 34.50882105 -10.8390007 30.10440063 C-10.83566638 27.99288799 -10.83975467 25.88135011 -10.85139847 23.76986694 C-10.86410479 20.81790469 -10.84473254 17.86783683 -10.81689453 14.91601562 C-10.82701569 14.04417633 -10.83713684 13.17233704 -10.8475647 12.27407837 C-10.77286514 7.99630124 -10.54088631 6.12431294 -7.9526062 2.5723877 C-4.94132786 0.45445669 -3.62513995 -0.00846491 0 0 Z " fill="#FABD07" transform="translate(66.169921875,53.384765625)"/>
<path d="M0 0 C4.09134968 0.85236452 5.42217583 2.36493761 8 5.625 C8.37353815 8.50871451 8.48712853 10.60789962 8.3125 13.4375 C8.209375 15.809375 8.10625 18.18125 8 20.625 C16.25 20.625 24.5 20.625 33 20.625 C31.68 22.275 30.36 23.925 29 25.625 C28.31405137 28.5035546 28.31405137 28.5035546 28.25 31.4375 C28.1675 33.149375 28.085 34.86125 28 36.625 C21.4 36.625 14.8 36.625 8 36.625 C8.05220703 40.86923828 8.05220703 40.86923828 8.10546875 45.19921875 C8.12887951 47.94619742 8.14708744 50.69316489 8.16479492 53.44018555 C8.17986128 55.34616081 8.20031824 57.25210152 8.22631836 59.15795898 C8.26279642 61.90096576 8.27974792 64.64351328 8.29296875 67.38671875 C8.30845261 68.23586349 8.32393646 69.08500824 8.33988953 69.95988464 C8.34122348 74.67213885 8.08932841 77.80805283 5 81.625 C2.19084526 83.02957737 0.11189466 82.87395157 -3 82.625 C-6.1359157 80.84515595 -6.84102736 80.10191793 -8 76.625 C-8.11495048 74.36740731 -8.16941962 72.10658703 -8.19287109 69.84619141 C-8.20104858 69.16128128 -8.20922607 68.47637115 -8.21765137 67.77070618 C-8.24244759 65.50600043 -8.2590048 63.24135703 -8.2734375 60.9765625 C-8.27876118 60.20224255 -8.28408485 59.42792259 -8.28956985 58.6301384 C-8.316274 54.53305807 -8.33565918 50.43600796 -8.35009766 46.33886719 C-8.36344733 42.94959588 -8.39132156 39.56092517 -8.43212891 36.171875 C-8.48143218 32.07699393 -8.50621522 27.98265835 -8.51332474 23.88749313 C-8.5200378 22.3285565 -8.53526155 20.76963207 -8.55921555 19.21086502 C-8.59085925 17.02746413 -8.59090696 14.84616791 -8.58349609 12.66259766 C-8.59158295 11.42144196 -8.5996698 10.18028625 -8.60800171 8.90151978 C-7.67146782 3.85454086 -5.03666935 1.04930611 0 0 Z " fill="#EB4435" transform="translate(110,77.375)"/>
<path d="M0 0 C0.598125 0.639375 1.19625 1.27875 1.8125 1.9375 C5.91539361 4.94277996 5.91539361 4.94277996 16 5 C16 14.9 16 24.8 16 35 C21.69905167 34.88187635 21.69905167 34.88187635 27.3972168 34.72973633 C32.08604008 34.68083417 35.21011422 34.91277549 39 38 C40.40457737 40.80915474 40.24895157 42.88810534 40 46 C38.22015595 49.1359157 37.47691793 49.84102736 34 51 C29.88876683 51.27124388 25.77768728 51.31313817 21.65820312 51.35009766 C20.30614001 51.36665751 18.95416446 51.39394924 17.60253906 51.43212891 C15.64441461 51.48707871 13.6853772 51.505666 11.7265625 51.5234375 C9.97206787 51.5531665 9.97206787 51.5531665 8.18212891 51.58349609 C5 51 5 51 2.11010742 49.12670898 C-0.94968504 44.5927784 -0.6290999 40.7989261 -0.48828125 35.44921875 C-0.48120651 34.43527542 -0.47413177 33.42133209 -0.46684265 32.37666321 C-0.43891012 29.1461837 -0.37617162 25.91745339 -0.3125 22.6875 C-0.28741575 20.4941657 -0.26460281 18.30080416 -0.24414062 16.10742188 C-0.18908755 10.73768698 -0.10547273 5.36896846 0 0 Z " fill="#36AA52" transform="translate(56,109)"/>
<path d="M0 0 C4.22094382 0.8793633 5.428097 2.14662412 8 5.625 C8.729088 9.44773294 8.65299555 13.21251166 8.59375 17.09375 C8.59379028 18.20681519 8.59383057 19.31988037 8.59387207 20.4666748 C8.58851742 22.81687068 8.57093733 25.16706612 8.54199219 27.51708984 C8.50014885 31.11221097 8.50092396 34.70545773 8.5078125 38.30078125 C8.49731942 40.58595051 8.48438068 42.87111011 8.46875 45.15625 C8.46854858 46.23032104 8.46834717 47.30439209 8.46813965 48.41101074 C8.3196524 57.78525518 8.3196524 57.78525518 5 61.625 C2.19084526 63.02957737 0.11189466 62.87395157 -3 62.625 C-6.1359157 60.84515595 -6.84102736 60.10191793 -8 56.625 C-8.11186348 54.97992138 -8.16889303 53.33083208 -8.19287109 51.68212891 C-8.20893402 50.67743561 -8.22499695 49.67274231 -8.24154663 48.63760376 C-8.28603992 44.05300626 -8.32704299 39.46855186 -8.35009766 34.88378906 C-8.36667535 32.46474601 -8.39398881 30.0457523 -8.43212891 27.62695312 C-8.48683529 24.13906447 -8.50876101 20.65232211 -8.5234375 17.1640625 C-8.54610687 16.08371735 -8.56877625 15.00337219 -8.59213257 13.89028931 C-8.5710166 6.39978975 -8.5710166 6.39978975 -5.65478516 2.44287109 C-3 0.625 -3 0.625 0 0 Z " fill="#4686F2" transform="translate(146,97.375)"/>
<path d="M0 0 C1.35444466 0.01061211 1.35444466 0.01061211 2.73625183 0.0214386 C5.61017963 0.04934806 8.48213347 0.11207893 11.35546875 0.17578125 C13.3079145 0.20086863 15.2603909 0.22368103 17.21289062 0.24414062 C21.99033977 0.29916336 26.76632001 0.38541127 31.54296875 0.48828125 C31.54296875 5.76828125 31.54296875 11.04828125 31.54296875 16.48828125 C25.79557117 16.61205729 20.04895248 16.70270373 14.30053711 16.76293945 C12.34597252 16.78805406 10.39150158 16.82215256 8.43725586 16.86547852 C5.62460207 16.92626559 2.81319173 16.95452108 0 16.9765625 C-0.87101852 17.00236893 -1.74203705 17.02817535 -2.63945007 17.05476379 C-7.07256646 17.05680431 -8.88368309 16.92843982 -12.5090332 14.14526367 C-14.45703125 11.48828125 -14.45703125 11.48828125 -15.08203125 8.48828125 C-13.33754366 0.1147408 -7.1884047 -0.21297715 0 0 Z " fill="#FABC06" transform="translate(70.45703125,97.51171875)"/>
<path d="M0 0 C4.13051433 0.86052382 5.42361554 2.29908283 8 5.625 C8.67109118 8.64483971 8.58438793 11.56366043 8.48828125 14.64453125 C8.48120651 15.50310226 8.47413177 16.36167328 8.46684265 17.2462616 C8.43894402 19.97757603 8.37621691 22.70680958 8.3125 25.4375 C8.28741114 27.2935901 8.26459899 29.14971246 8.24414062 31.00585938 C8.18913253 35.54636972 8.10289364 40.08533257 8 44.625 C7.26394531 44.65078125 6.52789062 44.6765625 5.76953125 44.703125 C4.79371094 44.75984375 3.81789063 44.8165625 2.8125 44.875 C1.84957031 44.92140625 0.88664062 44.9678125 -0.10546875 45.015625 C-3.61269699 45.75398884 -5.38330489 47.23313975 -8 49.625 C-8.12372902 43.45035087 -8.21440144 37.27642544 -8.2746582 31.10083008 C-8.29978051 29.0007673 -8.33388458 26.90079177 -8.37719727 24.80102539 C-8.43794871 21.7798916 -8.46623263 18.75991504 -8.48828125 15.73828125 C-8.51408768 14.80164139 -8.5398941 13.86500153 -8.56648254 12.89997864 C-8.56844927 8.31438485 -8.50181138 6.28744122 -5.65698242 2.53198242 C-3 0.625 -3 0.625 0 0 Z " fill="#36AA52" transform="translate(64,53.375)"/>
<path d="M0 0 C2.89640118 -0.08120751 5.79050912 -0.14059421 8.6875 -0.1875 C9.50412109 -0.21263672 10.32074219 -0.23777344 11.16210938 -0.26367188 C15.94015822 -0.32170486 19.13423093 -0.14903871 23 3 C24.40457737 5.80915474 24.24895157 7.88810534 24 11 C22.22015595 14.1359157 21.47691793 14.84102736 18 16 C16.22686149 16.08209792 14.45079225 16.10746294 12.67578125 16.09765625 C11.64775391 16.09443359 10.61972656 16.09121094 9.56054688 16.08789062 C8.48869141 16.07951172 7.41683594 16.07113281 6.3125 16.0625 C5.22904297 16.05798828 4.14558594 16.05347656 3.02929688 16.04882812 C0.35280915 16.03703743 -2.32356777 16.02058063 -5 16 C-4.28009888 15.35454224 -4.28009888 15.35454224 -3.5456543 14.69604492 C-1.2325272 12.15785286 -1.24456651 9.6693244 -0.8125 6.3125 C-0.65394531 5.13300781 -0.49539062 3.95351562 -0.33203125 2.73828125 C-0.22246094 1.83464844 -0.11289063 0.93101562 0 0 Z " fill="#FABD08" transform="translate(72,144)"/>
<path d="M0 0 C8.25 0 16.5 0 25 0 C23.68 1.65 22.36 3.3 21 5 C20.31405137 7.8785546 20.31405137 7.8785546 20.25 10.8125 C20.1675 12.524375 20.085 14.23625 20 16 C13.4 16 6.8 16 0 16 C0 10.72 0 5.44 0 0 Z " fill="#FABC06" transform="translate(118,98)"/>
<path d="M0 0 C0.33 0 0.66 0 1 0 C1 4.29 1 8.58 1 13 C-3.29 13 -7.58 13 -12 13 C-10.35 11.68 -8.7 10.36 -7 9 C-3.98531292 6.19563993 -1.56543178 3.84242345 0 0 Z " fill="#000000" transform="translate(215,203)"/>
<path d="M0 0 C1.32 1.65 2.64 3.3 4 5 C6.88859341 8.03302308 9.63112433 10.47334325 13 13 C8.71 13 4.42 13 0 13 C0 8.71 0 4.42 0 0 Z " fill="#000000" transform="translate(0,203)"/>
<path d="M0 0 C4.29 0 8.58 0 13 0 C13 4.29 13 8.58 13 13 C11.68 11.35 10.36 9.7 9 8 C6.11140659 4.96697692 3.36887567 2.52665675 0 0 Z " fill="#000000" transform="translate(203,0)"/>
<path d="M0 0 C4.29 0 8.58 0 13 0 C11.35 1.32 9.7 2.64 8 4 C4.96697692 6.88859341 2.52665675 9.63112433 0 13 C0 8.71 0 4.42 0 0 Z " fill="#000000" transform="translate(0,0)"/>
</svg>
