<?xml version="1.0" standalone="no"?><!DOCTYPE svg PUBLIC "-//W3C//DTD SVG 1.1//EN" "http://www.w3.org/Graphics/SVG/1.1/DTD/svg11.dtd"><svg t="1758873443417" class="icon" viewBox="0 0 1024 1024" version="1.1" xmlns="http://www.w3.org/2000/svg" p-id="18372" xmlns:xlink="http://www.w3.org/1999/xlink" width="200" height="200"><path d="M0 525.027556C0 635.747556 31.829333 735.288889 95.488 823.637333c63.658667 88.348444 146.147556 150.215111 247.466667 185.571556 4.024889 0.668444 7.352889 0.995556 10.026666 0.995555 2.673778 0 4.835556-0.497778 6.499556-1.507555 1.664-0.995556 2.986667-1.991111 3.982222-3.000889 1.009778-0.995556 1.692444-2.673778 2.033778-4.992 0.341333-2.332444 0.512-3.982222 0.512-4.992v-100.551111c-24.661333 2.659556-46.677333 2.488889-66.019556-0.512-19.342222-3.015111-34.517333-7.68-45.511111-14.023111a117.176889 117.176889 0 0 1-28.984889-23.495111c-8.334222-9.329778-14.008889-17.834667-16.981333-25.514667-2.986667-7.68-5.987556-15.687111-9.002667-24.007111-3.000889-8.334222-4.835556-13.169778-5.504-14.506667-5.987556-10.012444-14.990222-19.171556-27.008-27.505778-12.003556-8.32-21.006222-14.990222-27.008-20.010666-5.987556-5.006222-6.656-9.841778-2.005333-14.506667 33.336889-17.351111 70.997333 4.679111 112.981333 66.048 22.684444 34.019556 62.350222 44.032 119.011556 30.037333a142.648889 142.648889 0 0 1 39.992889-70.044444c-77.326222-13.994667-134.656-42.680889-171.989334-86.044444-37.333333-43.377778-56.007111-96.071111-56.007111-158.08 0-58.026667 18.346667-108.373333 55.011556-151.068445-14.677333-43.349333-12.672-89.031111 6.016-137.045333 19.328-1.351111 40.988444 2.488889 64.995555 11.491555 23.992889 9.002667 40.817778 16.682667 50.488889 23.011556 9.671111 6.343111 18.161778 12.188444 25.500445 17.521778 38.001778-10.666667 80.824889-16.014222 128.512-16.014223 47.672889 0 90.837333 5.333333 129.493333 16.014223a757.845333 757.845333 0 0 1 28.999111-19.015111c10.666667-6.684444 26.993778-13.852444 48.981334-21.518223 22.001778-7.665778 42.325333-10.837333 60.999111-9.514666 18.005333 47.36 20.337778 92.387556 6.997333 135.068444 37.333333 42.680889 56.007111 93.041778 56.007111 151.068445 0 62.008889-19.000889 114.872889-56.988444 158.549333-38.001778 43.690667-95.331556 72.206222-172.003556 85.546667 28.672 28.672 43.008 63.36 43.008 104.035555v129.038222c0 0.668444 0.341333 1.664 0.995556 3.015111 0 4.010667 0.170667 7.011556 0.512 8.988445 0.341333 1.991111 1.848889 3.982222 4.508444 6.016 2.673778 2.033778 6.670222 3.029333 12.003556 3.015111 101.987556-34.673778 185.486222-96.540444 250.481777-185.571556C991.488 736.597333 1024 636.373333 1024 524.999111c0-69.361778-13.511111-135.722667-40.504889-199.082667-27.022222-63.374222-63.345778-117.888-108.999111-163.555555-45.653333-45.667556-100.138667-82.019556-163.484444-109.027556A502.016 502.016 0 0 0 512.014222 12.8c-69.333333 0-135.665778 13.511111-198.997333 40.533333-63.345778 27.022222-117.831111 63.36-163.484445 109.027556-45.653333 45.667556-81.976889 100.181333-108.984888 163.555555A502.599111 502.599111 0 0 0 0.028444 524.999111L0 525.027556z" fill="#000000" p-id="18373"></path></svg>