<?xml version="1.0" standalone="no"?><!DOCTYPE svg PUBLIC "-//W3C//DTD SVG 1.1//EN" "http://www.w3.org/Graphics/SVG/1.1/DTD/svg11.dtd"><svg t="1758811068854" class="icon" viewBox="0 0 1024 1024" version="1.1" xmlns="http://www.w3.org/2000/svg" p-id="38249" xmlns:xlink="http://www.w3.org/1999/xlink" width="200" height="200"><path d="M0.001598 0h1022.721598v1022.721598H0.001598V0z" fill="#FEFEFE" p-id="38250"></path><path d="M398.863021 196.873908v2.556804c-10.74369-0.810507-20.970906 0.043466-30.681648 2.556804-29.300974 1.352549-56.574402 9.022961-81.817728 23.011236h-5.113608c4.919291-5.325823 10.459885-10.439431 16.619226-15.340824 1.058517 1.168459 2.336919 2.019875 3.835206 2.556804a742.291336 742.291336 0 0 0 46.022472-14.062422c17.023201-1.278402 34.069413-1.702831 51.13608-1.278402z" fill="#FDE8FE" p-id="38251"></path><path d="M398.863021 199.430712v-2.556804c90.344669-0.426986 180.684225 0 271.021224 1.278402 14.972644 2.569588 28.60808 7.25621 40.908864 14.062422a137.453783 137.453783 0 0 0-25.56804-5.113608c-10.531476-3.165323-21.612664-5.295141-33.238452-6.39201-84.369418-1.278402-168.74395-1.705388-253.123596-1.278402z" fill="#FBCBFE" p-id="38252"></path><path d="M368.181373 201.987516c9.710742-2.513338 19.937958-3.367311 30.681648-2.556804 84.379645-0.426986 168.754177 0 253.123596 1.278402 11.625788 1.096869 22.706976 3.226687 33.238452 6.39201h-71.590512c-26.286502-5.052245-53.55993-6.757633-81.817728-5.113608h-163.635456z" fill="#A71ACA" p-id="38253"></path><path d="M368.181373 204.54432c21.374881-0.846302 42.680729 0.005114 63.9201 2.556804l-2.556804 2.556804a114.299366 114.299366 0 0 1-33.238452 7.670412l-38.35206 15.340824c-8.787735-1.214482-16.458147 1.766752-23.011236 8.948814-5.658207 1.600559-11.198801 1.173573-16.619226-1.278402-8.347965 7.481208-18.148195 11.316414-29.403246 11.505618-7.990012 6.156784-13.10362 14.254182-15.340824 24.289637-4.561338 2.827825-9.250517 2.827825-14.062422 0-5.067586 3.121858-8.902792 7.38405-11.505617 12.78402-5.90366-3.6639-9.738866-1.958512-11.505618 5.113608-6.069853-7.12837-9.478072-6.274397-10.227216 2.556804a21.566642 21.566642 0 0 1-1.278402-10.227216h7.670412c-0.603406-6.969848 1.526412-12.934871 6.39201-17.897628L268.466017 239.061174a52.734082 52.734082 0 0 1 15.340824-5.113608c2.140045-2.584929 2.991461-5.568719 2.556804-8.948814a3290.269243 3290.269243 0 0 0 81.817728-20.454432z" fill="#7D05FB" p-id="38254"></path><path d="M613.634557 207.101124h71.590512v5.113608c-10.631191-4.162477-20.858407-3.311061-30.681648 2.556804a23.284814 23.284814 0 0 0-2.556804 12.78402c-11.838002 1.252834-23.34362 3.809638-34.516854 7.670412l-2.556804-2.556804a258.042886 258.042886 0 0 1-19.17603 7.670412 46.2398 46.2398 0 0 1-8.948814-5.113608c-4.272419 4.540884-8.959041 5.394856-14.062422 2.556804-9.199381 2.549134-17.721208 5.957353-25.56804 10.227216-8.105069-4.865598-14.070092-3.162767-17.897628 5.113608h-99.715356a771.643446 771.643446 0 0 0 61.363296-8.948814 283.373144 283.373144 0 0 1 43.465668-16.619226 18.644215 18.644215 0 0 0 7.670412 5.113608c22.745328-6.698826 45.332135-13.517823 67.755306-20.454432 2.633508-0.859086 3.91191-2.564474 3.835206-5.113608z" fill="#D801E6" p-id="38255"></path><path d="M368.181373 201.987516v2.556804a3290.269243 3290.269243 0 0 1-81.817728 20.454432c25.243326-13.988275 52.516754-21.658687 81.817728-23.011236z" fill="#6D1ED3" p-id="38256"></path><path d="M685.225069 207.101124a137.453783 137.453783 0 0 1 25.56804 5.113608c9.324664 2.958222 17.846492 7.217858 25.56804 12.78402a75.213503 75.213503 0 0 1-17.897628-5.113608c-9.365573-4.898836-19.592789-7.45564-30.681648-7.670412h-2.556804v-5.113608z" fill="#C735BD" p-id="38257"></path><path d="M685.225069 212.214732h2.556804a14.254182 14.254182 0 0 1-2.556804 7.670412l-20.454432 5.113608a11.380335 11.380335 0 0 0 5.113608 3.835206c-2.917313 1.894592-2.917313 4.026966 0 6.39201a195.327041 195.327041 0 0 1-25.56804 11.505618l5.113608 2.556804a1228.209378 1228.209378 0 0 1-102.27216-1.278402c7.846831-4.269863 16.368659-7.678082 25.56804-10.227216 5.103381 2.838052 9.790002 1.98408 14.062422-2.556804a46.2398 46.2398 0 0 0 8.948814 5.113608 258.042886 258.042886 0 0 0 19.17603-7.670412l2.556804 2.556804c11.173233-3.860774 22.678851-6.417578 34.516854-7.670412a23.284814 23.284814 0 0 1 2.556804-12.78402c9.823241-5.867865 20.050457-6.719281 30.681648-2.556804z" fill="#EB00E8" p-id="38258"></path><path d="M531.816829 201.987516c28.257798-1.644025 55.531226 0.061363 81.817728 5.113608 0.076704 2.549134-1.201698 4.254522-3.835206 5.113608-22.423171 6.936609-45.009978 13.755605-67.755306 20.454432a18.644215 18.644215 0 0 1-7.670412-5.113608 283.373144 283.373144 0 0 0-43.465668 16.619226 771.643446 771.643446 0 0 1-61.363296 8.948814h-46.022472c0.874427-2.142602 2.577258-2.996574 5.113608-2.556804 21.001588 1.30397 41.45602-1.252834 61.363296-7.670412v-7.670412a270.305318 270.305318 0 0 0 56.249688-17.897628 97.74406 97.74406 0 0 1 23.011236-10.227216c2.04033-1.168459 2.891745-2.873848 2.556804-5.113608z" fill="#BB00E8" p-id="38259"></path><path d="M488.351161 201.987516h43.465668c0.334941 2.23976-0.516474 3.945149-2.556804 5.113608a97.74406 97.74406 0 0 0-23.011236 10.227216 270.305318 270.305318 0 0 1-56.249688 17.897628v7.670412c-19.907276 6.417578-40.361708 8.974382-61.363296 7.670412 5.052245-3.860774 11.017268-5.993149 17.897628-6.39201a239.373104 239.373104 0 0 0 35.795256-23.011236 497.019685 497.019685 0 0 1 30.681648-7.670412c6.987745-3.093733 12.101353-6.928939 15.340824-11.505618z" fill="#A400ED" p-id="38260"></path><path d="M687.781873 212.214732c11.088859 0.214772 21.316075 2.771576 30.681648 7.670412 0.283805 1.577548 1.135221 2.85595 2.556804 3.835206-10.840849 0.654542-15.954457 6.192579-15.340824 16.619226-4.932075-0.690337-9.19171 0.588065-12.78402 3.835206l5.113608 2.556804a82.993858 82.993858 0 0 0-17.897628 7.670412 126.786797 126.786797 0 0 1-25.56804-1.278402h-125.283396c3.827536-8.276375 9.792559-9.979206 17.897628-5.113608 34.07964 1.846012 68.172065 2.272999 102.27216 1.278402l-5.113608-2.556804a195.327041 195.327041 0 0 0 25.56804-11.505618c-2.917313-2.365044-2.917313-4.497418 0-6.39201a11.380335 11.380335 0 0 1-5.113608-3.835206l20.454432-5.113608a14.254182 14.254182 0 0 0 2.556804-7.670412z" fill="#F003DF" p-id="38261"></path><path d="M281.250037 224.998752h5.113608c0.434657 3.380095-0.416759 6.363885-2.556804 8.948814a52.734082 52.734082 0 0 0-15.340824 5.113608L239.062772 268.464419c-4.865598 4.962757-6.995416 10.92778-6.39201 17.897628h-7.670412c14.27208-24.501853 33.021124-44.956285 56.249687-61.363295z" fill="#752ACA" p-id="38262"></path><path d="M368.181373 204.54432v-2.556804h120.169788c-3.239471 4.576679-8.353079 8.411885-15.340824 11.505618a497.019685 497.019685 0 0 0-30.681648 7.670412 239.373104 239.373104 0 0 1-35.795256 23.011236c-6.88036 0.398861-12.845383 2.531236-17.897628 6.39201-2.53635-0.43977-4.239181 0.414202-5.113608 2.556804-17.892514 1.955955-35.790142 4.08833-53.692884 6.392009-9.201938 6.987745-19.429154 12.525783-30.681648 16.619226a14.256739 14.256739 0 0 0-2.556804 7.670412c0 1.705388-0.851416 2.556804-2.556804 2.556804a84.507486 84.507486 0 0 1-15.340824 6.39201l2.556804 2.556804a2300.02417 2300.02417 0 0 0-20.454432 31.96005c-4.024409 1.117323-7.0082 3.674127-8.948813 7.670412 0.705678-8.125523-1.851126-15.795935-7.670412-23.011236a89.319391 89.319391 0 0 1-14.062422 21.732834c-2.682087 1.257948-5.238891 0.833518-7.670412-1.278402a73.47232 73.47232 0 0 1-2.556804-12.78402 80.787336 80.787336 0 0 0-7.670412 12.78402l5.113608-30.681648 2.556804-10.227216 5.113608-5.113608a21.566642 21.566642 0 0 0 1.278402 10.227216c0.749144-8.831201 4.157363-9.685174 10.227216-2.556804 1.766752-7.07212 5.601958-8.777508 11.505618-5.113608 2.602826-5.39997 6.438032-9.662162 11.505617-12.78402 4.811905 2.827825 9.501084 2.827825 14.062422 0 2.237203-10.035456 7.350811-18.132854 15.340824-24.289637 11.255051-0.189203 21.055281-4.024409 29.403246-11.505618 5.420424 2.451975 10.961019 2.878961 16.619226 1.278402 6.553089-7.182062 14.223501-10.163296 23.011236-8.948814l38.35206-15.340824a114.299366 114.299366 0 0 0 33.238452-7.670412l2.556804-2.556804a401.732714 401.732714 0 0 0-63.9201-2.556804z" fill="#8F03FA" p-id="38263"></path><path d="M419.317453 255.6804v-2.556804h235.225968a154.154826 154.154826 0 0 1 17.897628 7.670411c-9.365573-1.155675-18.741373-2.434077-28.124844-3.835206-74.993618-1.278402-149.994906-1.705388-224.998752-1.278401z" fill="#CD3BCE" p-id="38264"></path><path d="M419.317453 255.6804c75.003845-0.426986 150.005134 0 224.998752 1.278401 9.383471 1.401129 18.759271 2.679531 28.124844 3.835206 2.53635-0.43977 4.239181 0.414202 5.113608 2.556804a3444.541683 3444.541683 0 0 0-322.157304-2.556804c20.707556-4.425828 42.013403-6.131216 63.9201-5.113607z" fill="#FED8FE" p-id="38265"></path><path d="M718.463521 219.885144a75.213503 75.213503 0 0 0 17.897628 5.113608h2.556804c9.749094 11.11187 18.270921 23.468904 25.56804 37.073657-1.981523 3.144869-4.538327 3.996285-7.670412 2.556804a37.707745 37.707745 0 0 1-7.670412-11.505617l-2.556804 8.948813c4.402816 10.038012 6.108205 20.265228 5.113608 30.681648-2.426407 1.577548-4.556225 1.153119-6.39201-1.278402a21.553858 21.553858 0 0 1-1.278402-10.227216 178.388215 178.388215 0 0 0-20.454432 0 228.363506 228.363506 0 0 0-43.465668-17.897628h-2.556804c-0.874427-2.142602-2.577258-2.996574-5.113608-2.556804a154.154826 154.154826 0 0 0-17.897628-7.670411c8.542282 1.291186 17.06411 1.718172 25.56804 1.278402a82.993858 82.993858 0 0 1 17.897628-7.670412l-5.113608-2.556804c3.59231-3.247141 7.851945-4.525543 12.78402-3.835206-0.613633-10.426647 4.499975-15.964684 15.340824-16.619226-1.421583-0.979256-2.272999-2.257658-2.556804-3.835206z" fill="#F808D2" p-id="38266"></path><path d="M677.554657 263.350811h2.556804c13.049928 11.403346 28.390752 19.073758 46.022472 23.011236l7.670412 5.113608a64.073508 64.073508 0 0 1 12.78402 20.454432 132.667446 132.667446 0 0 0 11.505618 33.238452 2552.966232 2552.966232 0 0 1 1.278402 332.38452 118.865818 118.865818 0 0 1-12.78402 38.35206 17151.450287 17151.450287 0 0 1-23.011236 25.56804l-35.795256 17.897628a49.141773 49.141773 0 0 0-15.340824 2.556804 184.171705 184.171705 0 0 1-28.124844 2.556804c-82.674257 0.426986-165.343401 0-248.009988-1.278402a521.894831 521.894831 0 0 1-89.48814-19.17603 30.024549 30.024549 0 0 1-12.78402-7.670412 4565.505918 4565.505918 0 0 1-23.011236-30.681648 48.512799 48.512799 0 0 1-5.113608-20.454432 694.284784 694.284784 0 0 1-7.670412-130.397004 1886.611975 1886.611975 0 0 1 6.39201-209.657928c4.563895-10.909883 8.399101-21.988514 11.505618-33.238452 13.03203-8.340295 24.113218-18.994497 33.238452-31.96005a309.386067 309.386067 0 0 1 43.465668-19.17603h2.556804a3444.541683 3444.541683 0 0 1 322.157304 2.556804z" fill="#FEFDFD" p-id="38267"></path><path d="M383.522197 253.123596h35.795256v2.556804c-21.906697-1.017608-43.212544 0.68778-63.9201 5.113607h-2.556804c-20.515795 3.444015-39.267396 11.114427-56.249688 23.011236a14.256739 14.256739 0 0 1 2.556804-7.670412c11.252494-4.093443 21.47971-9.631481 30.681648-16.619226 17.902742-2.30368 35.80037-4.436055 53.692884-6.392009z" fill="#8723CC" p-id="38268"></path><path d="M352.840549 260.794007a309.386067 309.386067 0 0 0-43.465668 19.17603c-9.125233 12.965553-20.206422 23.619755-33.238452 31.96005 3.909353-9.889718 9.876934-18.411546 17.897628-25.56804 1.705388 0 2.556804-0.851416 2.556804-2.556804 16.982292-11.896809 35.733893-19.567221 56.249688-23.011236z" fill="#FDE3FE" p-id="38269"></path><path d="M738.917953 224.998752a242.673938 242.673938 0 0 1 53.692883 48.579275v5.113608a37.579905 37.579905 0 0 1-8.948814-7.670412c-1.577548 2.426407-1.153119 4.556225 1.278402 6.39201-1.557094 5.261903-4.113898 7.39172-7.670412 6.39201 4.305658 3.461913 5.58406 7.724105 3.835206 12.78402a36.5444 36.5444 0 0 1-16.619225 6.39201 139.673089 139.673089 0 0 1-5.113608 11.505618 7384.770956 7384.770956 0 0 0-25.56804-23.011236l-7.670412-5.113608-2.556804-5.113608a178.388215 178.388215 0 0 1 20.454432 0 21.553858 21.553858 0 0 0 1.278402 10.227216c1.835785 2.431521 3.965603 2.85595 6.39201 1.278402 0.994597-10.416419-0.710792-20.643635-5.113608-30.681648l2.556804-8.948813a37.707745 37.707745 0 0 0 7.670412 11.505617c3.132085 1.439481 5.688889 0.588065 7.670412-2.556804-7.297119-13.604754-15.818946-25.961788-25.56804-37.073657z" fill="#F709BD" p-id="38270"></path><path d="M680.111461 263.350811a228.363506 228.363506 0 0 1 43.465668 17.897628l2.556804 5.113608c-17.63172-3.937478-32.972544-11.60789-46.022472-23.011236z" fill="#FFE1FE" p-id="38271"></path><path d="M792.610836 273.578027c9.398811 6.88803 14.512419 16.26383 15.340824 28.124844-3.249698-8.866996-8.363306-16.537408-15.340824-23.011236v-5.113608z" fill="#FFD8FE" p-id="38272"></path><path d="M294.034057 286.362047c-8.020694 7.156494-13.988275 15.678322-17.897628 25.56804-6.660474 9.076654-11.349653 19.30387-14.062422 30.681648a356.707396 356.707396 0 0 0-6.392009 48.579276h-2.556804v-5.113608-15.340824a575.526352 575.526352 0 0 0 7.670411-43.465668 2300.02417 2300.02417 0 0 1 20.454432-31.96005l-2.556804-2.556804a84.507486 84.507486 0 0 0 15.340824-6.39201z" fill="#9627CE" p-id="38273"></path><path d="M700.565893 311.930087c-12.518112-5.295141-25.302132-6.146557-38.35206-2.556804 0.283805-1.577548 1.135221-2.85595 2.556804-3.835206 10.227216-1.705388 20.454432-1.705388 30.681648 0 2.252544 1.810217 3.955376 3.942592 5.113608 6.39201z" fill="#FFD6FD" p-id="38274"></path><path d="M792.610836 278.691635a277.459256 277.459256 0 0 1 15.340824 40.908864 12.615271 12.615271 0 0 1-1.278402 7.670412c-2.971006-5.977808-7.660185-9.388584-14.062422-10.227216-0.020454 9.409039-4.282647 16.228035-12.78402 20.454432a9.324664 9.324664 0 0 1-3.835206-2.556804c-4.4156 7.972115-6.547975 16.493943-6.39201 25.56804-3.894012-8.685463-6.450816-18.061263-7.670411-28.124844-0.631531-3.101403-2.336919-4.806792-5.113608-5.113608l-10.227216-15.340824a64.073508 64.073508 0 0 0-12.78402-20.454432c8.355635 7.483765 16.877463 15.154177 25.56804 23.011236a139.673089 139.673089 0 0 0 5.113608-11.505618 36.5444 36.5444 0 0 0 16.619225-6.39201c1.748854-5.059915 0.470452-9.322107-3.835206-12.78402 3.556514 0.99971 6.113318-1.130107 7.670412-6.39201-2.431521-1.835785-2.85595-3.965603-1.278402-6.39201a37.579905 37.579905 0 0 0 8.948814 7.670412z" fill="#F908AC" p-id="38275"></path><path d="M792.610836 278.691635c6.977518 6.473828 12.091126 14.14424 15.340824 23.011236a110.778647 110.778647 0 0 0 7.670412 25.56804 169.280879 169.280879 0 0 1 5.113608 40.908864h-5.113608c1.718172-17.409278-0.838632-33.601518-7.670412-48.579276a277.459256 277.459256 0 0 0-15.340824-40.908864z" fill="#D13093" p-id="38276"></path><path d="M641.759401 329.827715a117.0556 117.0556 0 0 0 2.556804 30.681648c-9.242846-9.457618-10.094262-19.684834-2.556804-30.681648z" fill="#FED0FD" p-id="38277"></path><path d="M217.329938 301.702871l-5.113608 30.681648a209.443156 209.443156 0 0 0-5.113608 25.56804c0.876984 5.070142-0.825848 8.480919-5.113608 10.227216 0.347725-23.52771 5.461333-45.687531 15.340824-66.476904z" fill="#9E29CD" p-id="38278"></path><path d="M531.816829 350.282147c-21.541074-0.731246-42.849478 0.971586-63.9201 5.113608 0.283805-1.577548 1.135221-2.85595 2.556804-3.835206 7.340584-0.301703 14.159581-2.004534 20.454432-5.113608l20.454432-1.278402c7.900524 0.05625 14.719521 1.759081 20.454432 5.113608z" fill="#FFE2FF" p-id="38279"></path><path d="M807.95166 319.600499c6.83178 14.977758 9.388584 31.169998 7.670412 48.579276a563.795735 563.795735 0 0 1-35.795256 24.289638 24.172025 24.172025 0 0 0-3.835206 6.39201 376.663251 376.663251 0 0 1-6.39201-20.454432v-17.897628c-0.155965-9.074097 1.976409-17.595925 6.39201-25.56804 1.058517 1.168459 2.336919 2.022432 3.835206 2.556804 8.501373-4.226397 12.763566-11.045393 12.78402-20.454432 6.402237 0.838632 11.091416 4.249408 14.062422 10.227216a12.615271 12.615271 0 0 0 1.278402-7.670412z" fill="#FD0192" p-id="38280"></path><path d="M260.795605 327.270911a575.526352 575.526352 0 0 1-7.670411 43.465668c-1.577548 0.283805-2.85595 1.135221-3.835206 2.556804-1.815331-3.766172-4.796564-5.471561-8.948814-5.113608v-7.670412h-10.227216v7.670412c-9.869263 1.140335-17.539675-2.267885-23.011236-10.227216a209.443156 209.443156 0 0 1 5.113608-25.56804 80.787336 80.787336 0 0 1 7.670412-12.78402c0.434657 4.134352 1.286072 8.396544 2.556804 12.78402 2.431521 2.11192 4.988325 2.53635 7.670412 1.278402a89.319391 89.319391 0 0 0 14.062422-21.732834c5.819286 7.215301 8.37609 14.885713 7.670412 23.011236 1.940614-3.996285 4.924404-6.553089 8.948813-7.670412z" fill="#C101FB" p-id="38281"></path><path d="M544.600849 355.395755c14.878042 8.335181 29.79188 16.857009 44.74407 25.56804 3.853104-2.646292 7.68831-2.219306 11.505618 1.278402a532.610397 532.610397 0 0 1 12.78402 11.505618c-5.898547 1.759081-9.306767 4.740315-10.227216 8.948814a47.180704 47.180704 0 0 1-15.340824 1.278402 21.553858 21.553858 0 0 0-1.278402-10.227216 52.238062 52.238062 0 0 1-14.062422 3.835206 24.172025 24.172025 0 0 0-3.835206 6.39201c-10.682327-9.378357-23.039361-14.491965-37.073658-15.340824v10.227216h-7.670412a28.602966 28.602966 0 0 0-2.556804-11.505618c1.035506-2.41618 2.740894-4.121568 5.113608-5.113608a151.490637 151.490637 0 0 0-25.56804-8.948814c-0.357953-3.2318-0.357953-6.215591 0-8.948814-5.64031-1.871581-9.899945-0.166192-12.78402 5.113608-9.86415 2.071011-19.237393 1.644025-28.124844-1.278402 0.283805-1.577548 1.135221-2.85595 2.556804-3.835206 26.585648-8.030921 53.859076-11.014712 81.817728-8.948814z" fill="#FC01B9" p-id="38282"></path><path d="M467.896729 355.395755c-16.903031 5.461333-33.095271 13.131745-48.579276 23.011236 11.694821-16.496499 27.887061-24.166911 48.579276-23.011236z" fill="#FEDFFE" p-id="38283"></path><path d="M531.816829 350.282147l12.78402 5.113608c-27.958652-2.065898-55.23208 0.917893-81.817728 8.948814-1.421583 0.979256-2.272999 2.257658-2.556804 3.835206-6.94428-0.291476-12.057888 2.265328-15.340824 7.670412-3.717593 2.60794-4.569009 5.59173-2.556804 8.948814-7.463311 1.380674-14.282307 0.529258-20.454432-2.556804a848.460065 848.460065 0 0 0-40.908864 37.073658 112.095401 112.095401 0 0 1 11.505618-17.897628 358.515056 358.515056 0 0 0 26.846442-23.011236c15.484005-9.879491 31.676245-17.549903 48.579276-23.011236a280.910941 280.910941 0 0 1 63.9201-5.113608z" fill="#E125A9" p-id="38284"></path><path d="M544.600849 355.395755a212.1278 212.1278 0 0 1 43.465668 12.78402 218.8164 218.8164 0 0 1 30.681648 25.56804h-5.113608a532.610397 532.610397 0 0 0-12.78402-11.505618c-3.817308-3.497708-7.652514-3.924694-11.505618-1.278402a3057.436444 3057.436444 0 0 0-44.74407-25.56804z" fill="#DF22AF" p-id="38285"></path><path d="M207.102722 357.952559c5.471561 7.959331 13.141973 11.367551 23.011236 10.227216v-7.670412h10.227216v7.670412c4.15225-0.357953 7.133483 1.347436 8.948814 5.113608 0.979256-1.421583 2.257658-2.272999 3.835206-2.556804v15.340824c-2.050557 3.712479-3.328959 7.972115-3.835206 12.78402a255.859376 255.859376 0 0 1-37.073658-2.556804c-4.126682 0.774712-7.537458 2.4801-10.227216 5.113608v-33.238452c4.28776-1.746297 5.990592-5.157074 5.113608-10.227216z" fill="#DF01FB" p-id="38286"></path><path d="M700.565893 311.930087c9.242846 8.25592 14.356454 18.483136 15.340824 30.681648 0.738916 10.416419-2.669303 18.940804-10.227216 25.56804-8.805633 5.875536-18.605863 9.286312-29.403246 10.227216-8.092285-1.702831-15.338267-5.113608-21.732834-10.227216 8.468135 2.515895 16.989963 5.072699 25.56804 7.670412a71.700454 71.700454 0 0 1 12.78402-3.835206l-5.113608-2.556804a58.757913 58.757913 0 0 1 12.78402-5.113608c-2.868734-4.124125-1.590332-7.107915 3.835206-8.948814 3.275266-10.689998 3.275266-21.768629 0-33.238452-7.458197-6.724395-16.407011-10.132614-26.846442-10.227216-30.259775 8.046262-39.635576 26.795306-28.124844 56.249688-2.30368-2.019875-4.009069-4.576679-5.113608-7.670412a117.0556 117.0556 0 0 1-2.556804-30.681648 116.099356 116.099356 0 0 1 20.454432-20.454432c13.049928-3.589753 25.833948-2.738337 38.35206 2.556804z" fill="#E51CAB" p-id="38287"></path><path d="M654.543421 368.179775h-5.113608c-11.510732-29.454382-2.134931-48.203426 28.124844-56.249688 10.439431 0.094602 19.388245 3.502821 26.846442 10.227216 3.275266 11.469823 3.275266 22.548454 0 33.238452-5.425538 1.840899-6.70394 4.824689-3.835206 8.948814a58.757913 58.757913 0 0 0-12.78402 5.113608l5.113608 2.556804a71.700454 71.700454 0 0 0-12.78402 3.835206 5077.822961 5077.822961 0 0 0-25.56804-7.670412z" fill="#FD01C2" p-id="38288"></path><path d="M649.429813 368.179775h5.113608c6.394567 5.113608 13.640549 8.524385 21.732834 10.227216 10.797383-0.940904 20.597613-4.35168 29.403246-10.227216-2.999131 5.123835-7.261323 8.959041-12.78402 11.505618a103.353688 103.353688 0 0 1-35.795256-1.278402l-7.670412-10.227216z" fill="#CC379C" p-id="38289"></path><path d="M419.317453 378.406991a358.515056 358.515056 0 0 1-26.846442 23.011236 112.095401 112.095401 0 0 0-11.505618 17.897628h-2.556804c-0.283805-1.577548-1.135221-2.85595-2.556804-3.835206a240.063441 240.063441 0 0 1 28.124844-30.681648c4.390032-3.986057 9.50364-6.115875 15.340824-6.39201z" fill="#FFD8FC" p-id="38290"></path><path d="M700.565893 311.930087c3.778956-0.669883 7.187176 0.181533 10.227216 2.556804 18.401318 40.852614 6.041728 65.566682-37.073658 74.147316-6.606782-1.966182-12.144819-5.374402-16.619226-10.227216a103.353688 103.353688 0 0 0 35.795256 1.278402c5.522697-2.546577 9.784889-6.381783 12.78402-11.505618 7.557913-6.627236 10.966132-15.15162 10.227216-25.56804-0.98437-12.198512-6.097978-22.425728-15.340824-30.681648z" fill="#FEDEFD" p-id="38291"></path><path d="M444.885493 375.850187a64.278052 64.278052 0 0 1 11.505618 10.227216l28.124844-2.556804c4.361908 2.065898 6.491725 5.474117 6.39201 10.227216a52.882377 52.882377 0 0 1 23.011236-1.278402 28.393308 28.393308 0 0 1 7.670412 11.505618c-26.186787-1.536639-50.049438 4.428385-71.590512 17.897628-3.165323-2.331805-6.5761-2.758792-10.227216-1.278402a31.0396 31.0396 0 0 1-11.505618 8.948814l-2.556804 7.670412a886.213833 886.213833 0 0 0-12.78402-12.78402c-1.889478 2.746007-4.446282 4.451396-7.670412 5.113608a1546.038012 1546.038012 0 0 0-8.948814-7.670412c-7.493993 5.469004-12.6076 11.434027-15.340824 17.897628-3.157653-2.147715-5.714457-4.704519-7.670412-7.670412a41.77562 41.77562 0 0 1 5.113608-12.78402h2.556804a848.460065 848.460065 0 0 1 40.908864-37.073658c6.172125 3.086062 12.991121 3.937478 20.454432 2.556804-2.012205-3.357084-1.160789-6.340874 2.556804-8.948814z" fill="#FB02A5" p-id="38292"></path><path d="M613.634557 393.747815h5.113608l10.227216 7.670412a14.642816 14.642816 0 0 0 2.556804 7.670412c-3.84799 9.570117-8.961598 9.997104-15.340824 1.278402a21.553858 21.553858 0 0 0-10.227216-1.278402c-0.296589 8.718702 3.963046 12.129478 12.78402 10.227216v12.78402c-3.380095-0.434657-6.363885 0.416759-8.948814 2.556804l-2.556804-5.113608c-2.556804 3.40822-5.113608 3.40822-7.670412 0 4.806792 5.550821 9.49597 11.942831 14.062422 19.17603-2.032659 4.044864-5.016449 4.47185-8.948814 1.278402-2.633508 0.859086-3.91191 2.564474-3.835206 5.113608-11.434027-15.701333-25.923436-27.633938-43.465668-35.795256a112.563296 112.563296 0 0 0-35.795256-12.78402v-2.556804a28.393308 28.393308 0 0 0-7.670412-11.505618 52.882377 52.882377 0 0 0-23.011236 1.278402c0.099715-4.753099-2.030102-8.161318-6.39201-10.227216l-28.124844 2.556804a64.278052 64.278052 0 0 0-11.505618-10.227216c3.282936-5.405084 8.396544-7.961888 15.340824-7.670412 8.887451 2.922427 18.260694 3.349413 28.124844 1.278402 2.884075-5.2798 7.14371-6.985189 12.78402-5.113608-0.357953 2.733223-0.357953 5.717014 0 8.948814a151.490637 151.490637 0 0 1 25.56804 8.948814c-2.372714 0.99204-4.078102 2.697428-5.113608 5.113608 1.656809 3.681798 2.508225 7.517004 2.556804 11.505618h7.670412v-10.227216c14.034297 0.848859 26.391331 5.962467 37.073658 15.340824a24.172025 24.172025 0 0 1 3.835206-6.39201 52.238062 52.238062 0 0 0 14.062422-3.835206 21.553858 21.553858 0 0 1 1.278402 10.227216 47.180704 47.180704 0 0 0 15.340824-1.278402c0.920449-4.208499 4.328669-7.189733 10.227216-8.948814z" fill="#FA07AE" p-id="38293"></path><path d="M815.622072 368.179775h5.113608v66.476904c-1.955955-2.965893-4.512759-5.522697-7.670412-7.670412-14.691396 2.201408-25.772584 9.444834-33.238452 21.732834-3.244584-0.278692-5.801388 0.148295-7.670412 1.278402h-2.556804v-71.590512a376.663251 376.663251 0 0 0 6.39201 20.454432 24.172025 24.172025 0 0 1 3.835206-6.39201 563.795735 563.795735 0 0 0 35.795256-24.289638z" fill="#FA0279" p-id="38294"></path><path d="M521.589613 403.975031v2.556804c-12.564135-0.352839-24.496739 1.349993-35.795256 5.113608-17.465528 3.617878-32.806352 11.28829-46.022472 23.011236 1.562207-5.816729 4.972984-10.076365 10.227216-12.78402 21.541074-13.469243 45.403725-19.434267 71.590512-17.897628z" fill="#D43198" p-id="38295"></path><path d="M588.066517 368.179775a151.976429 151.976429 0 0 1 25.56804 8.948814c5.448549 10.137728 13.118961 18.232569 23.011236 24.289638a41.103181 41.103181 0 0 1 5.113608 12.78402 71.772045 71.772045 0 0 1-12.78402-12.78402l-10.227216-7.670412a218.8164 218.8164 0 0 0-30.681648-25.56804z" fill="#FFE0FD" p-id="38296"></path><path d="M253.125194 386.077403v20.454432a64.531176 64.531176 0 0 1-10.227216 14.062422 211.391441 211.391441 0 0 0-34.516854 6.39201c-5.532924-7.534901-7.665298-16.059286-6.39201-25.56804 2.689758-2.633508 6.100534-4.338896 10.227216-5.113608a255.859376 255.859376 0 0 0 37.073658 2.556804c0.506247-4.811905 1.784649-9.071541 3.835206-12.78402z" fill="#FA00E9" p-id="38297"></path><path d="M815.622072 327.270911c4.333783 5.706787 7.317573 12.525783 8.948814 20.454432a158.309633 158.309633 0 0 0 6.39201 43.465668 7838.887471 7838.887471 0 0 0-1.278402 199.430712 2656.442647 2656.442647 0 0 1-5.113608 84.374532c-1.631241 7.928649-4.615031 14.747645-8.948814 20.454432a1018.965653 1018.965653 0 0 1 6.39201-40.908864 5355.865169 5355.865169 0 0 0-1.278402-286.362048 169.280879 169.280879 0 0 0-5.113608-40.908864z" fill="#FFE1F7" p-id="38298"></path><path d="M485.794357 411.645443c13.663561-0.424429 27.298996 0.002557 40.908864 1.278402 6.057069 5.016449 9.465288 10.554487 10.227216 16.619226 3.515605-9.189154 10.334602-12.59993 20.454432-10.227216-0.519031 4.83236 1.1838 8.667566 5.113608 11.505618 9.73631 2.096579 17.833708 6.783201 24.289638 14.062422 1.748854 3.282936 1.321868 6.266727-1.278402 8.948814a122.176879 122.176879 0 0 1 17.897628 19.17603c6.76019 20.704999 9.316994 42.010846 7.670412 63.9201-7.478652 28.61575-23.670891 50.775571-48.579276 66.476904-39.730177 18.314387-78.082237 15.757583-115.05618-7.670412-12.098797-11.485164-22.326012-24.269184-30.681648-38.35206a137.453783 137.453783 0 0 1-5.113608-20.454432v-46.022472c3.004245 0.55994 5.561049-0.291476 7.670412-2.556804a39.420804 39.420804 0 0 1-2.556804-17.897628 123.058976 123.058976 0 0 1 23.011236-35.795256c13.21612-11.722946 28.556944-19.393358 46.022472-23.011236z" fill="#FEFDFD" p-id="38299"></path><path d="M276.136429 311.930087a277.339086 277.339086 0 0 1-11.505618 33.238452 1886.611975 1886.611975 0 0 0-6.39201 209.657928h-2.556803v-43.465668-61.363296-58.806492a356.707396 356.707396 0 0 1 6.392009-48.579276c2.712769-11.377778 7.401948-21.604994 14.062422-30.681648z" fill="#FED7FB" p-id="38300"></path><path d="M521.589613 406.531835a112.563296 112.563296 0 0 1 35.795256 12.78402c-10.11983-2.372714-16.938826 1.038062-20.454432 10.227216-0.761928-6.064739-4.170147-11.602777-10.227216-16.619226a328.567211 328.567211 0 0 0-40.908864-1.278402c11.298517-3.763615 23.231121-5.466447 35.795256-5.113608z" fill="#FEE8FE" p-id="38301"></path><path d="M557.384869 419.315855c17.542232 8.161318 32.03164 20.093923 43.465668 35.795256 12.579476 23.277144 16.839111 47.991211 12.78402 74.147316 0.605963 3.300834-0.245453 5.857638-2.556804 7.670412 1.646582-21.909253-0.910222-43.215101-7.670412-63.9201a122.176879 122.176879 0 0 0-17.897628-19.17603c2.60027-2.682087 3.027256-5.665878 1.278402-8.948814-6.45593-7.279221-14.553328-11.965843-24.289638-14.062422-3.929808-2.838052-5.632639-6.673258-5.113608-11.505618z" fill="#FFE5FD" p-id="38302"></path><path d="M201.989114 368.179775v33.238452c-1.273288 9.508754 0.859086 18.033139 6.39201 25.56804a211.391441 211.391441 0 0 1 34.516854-6.39201 64.531176 64.531176 0 0 0 10.227216-14.062422c1.242607 14.021513-1.314197 27.229963-7.670412 39.630462a213.18376 213.18376 0 0 0-34.516854 6.39201 36.05605 36.05605 0 0 0-8.948814-2.556804h-2.556804c-0.838632-27.731096 0.015341-55.004524 2.556804-81.817728z" fill="#F80BCD" p-id="38303"></path><path d="M449.999101 421.872659c-5.254232 2.707655-8.665009 6.967291-10.227216 12.78402-8.25592 4.801678-15.926332 10.769258-23.011236 17.897628-5.52781-1.015051-8.93603-4.425828-10.227216-10.227216-7.092574 9.291426-15.187416 10.145398-24.289638 2.556804-4.850257 3.876115-10.390851 5.581503-16.619226 5.113608 0.813064 7.621833-1.74374 13.589413-7.670412 17.897628 1.67982-13.612424 6.793428-25.542472 15.340824-35.795256 1.955955 2.965893 4.512759 5.522697 7.670412 7.670412 2.733223-6.4636 7.846831-12.428624 15.340824-17.897628 2.978677 2.533793 5.962467 5.090597 8.948814 7.670412 3.22413-0.662212 5.780934-2.3676 7.670412-5.113608a886.213833 886.213833 0 0 1 12.78402 12.78402l2.556804-7.670412a31.0396 31.0396 0 0 0 11.505618-8.948814c3.651116-1.48039 7.061893-1.053403 10.227216 1.278402z" fill="#F60D89" p-id="38304"></path><path d="M628.975381 401.418227a71.772045 71.772045 0 0 0 12.78402 12.78402 397.444954 397.444954 0 0 0 19.17603 35.795256 85.770547 85.770547 0 0 1 6.39201 25.56804 25.107815 25.107815 0 0 1-7.670412-10.227216c-0.271021-9.968979-4.530657-17.639391-12.78402-23.011236a99.336949 99.336949 0 0 1-3.835206-17.897628c-5.374402-4.078102-9.209608-9.19171-11.505618-15.340824a14.642816 14.642816 0 0 1-2.556804-7.670412z" fill="#DB2A94" p-id="38305"></path><path d="M820.73568 434.656679c0.846302 59.248819-0.005114 118.055311-2.556804 176.419476-4.83236-0.519031-8.667566 1.1838-11.505618 5.113608a314.021553 314.021553 0 0 0-20.454432 76.70412 26.884794 26.884794 0 0 0-6.39201 7.670412c-1.388345-0.153408-2.23976-1.004824-2.556804-2.556804a274.42433 274.42433 0 0 0 10.227216-37.073658c-2.127261-6.33576-2.554247-12.72777-1.278402-19.17603a517.8244 517.8244 0 0 0 21.732834-46.022472c3.666457-1.866467 6.64769-4.423271 8.948814-7.670412 2.086352-49.494612 1.659366-90.403476-1.278402-122.726592-5.875536 2.071011-11.843116 4.203386-17.897628 6.39201-5.898547 8.00791-13.141973 14.39992-21.732834 19.17603-0.442327 14.103331-1.720729 27.738767-3.835206 40.908864v-81.817728c1.869024-1.130107 4.425828-1.557094 7.670412-1.278402 7.465868-12.288 18.547056-19.531426 33.238452-21.732834 3.157653 2.147715 5.714457 4.704519 7.670412 7.670412z" fill="#FC0168" p-id="38306"></path><path d="M253.125194 391.191011h2.556804v58.806492c-4.134352 2.78436-6.26417 7.046552-6.39201 12.78402-13.244245-2.884075-26.455251-2.032659-39.630462 2.556804a12.610157 12.610157 0 0 1-6.39201-2.556804 33.07226 33.07226 0 0 1-1.278402-12.78402c3.055381 0.455111 6.039171 1.306527 8.948814 2.556804a213.18376 213.18376 0 0 1 34.516854-6.39201c6.356215-12.400499 8.913019-25.608949 7.670412-39.630462v-15.340824z" fill="#F80DB6" p-id="38307"></path><path d="M631.532185 409.088639c2.29601 6.149114 6.131216 11.262722 11.505618 15.340824a99.336949 99.336949 0 0 0 3.835206 17.897628c8.253363 5.371845 12.512999 13.042257 12.78402 23.011236-2.648849 5.594287-6.484055 5.594287-11.505618 0-12.625498 6.415021-22.425728 15.363835-29.403246 26.846442 2.249988 3.467026 3.10396 7.302232 2.556804 11.505618h-2.556804c-0.467895-18.472909-6.435476-34.667705-17.897628-48.579276-0.076704-2.549134 1.201698-4.254522 3.835206-5.113608 3.932365 3.193448 6.916155 2.766462 8.948814-1.278402-4.566452-7.233199-9.25563-13.625208-14.062422-19.17603 2.556804 3.40822 5.113608 3.40822 7.670412 0l2.556804 5.113608c2.584929-2.140045 5.568719-2.991461 8.948814-2.556804v-12.78402c-8.820974 1.902262-13.080609-1.508514-12.78402-10.227216a21.553858 21.553858 0 0 1 10.227216 1.278402c6.379226 8.718702 11.492834 8.291715 15.340824-1.278402z" fill="#FB0297" p-id="38308"></path><path d="M219.886742 291.475655l-2.556804 10.227216c-9.879491 20.789373-14.993099 42.949194-15.340824 66.476904-2.541463 26.813203-3.395436 54.086632-2.556804 81.817728v143.181024h-2.556804a11420.95197 11420.95197 0 0 0-5.113608-186.646692 372.170946 372.170946 0 0 0 6.39201-61.363296 566.741174 566.741174 0 0 1 15.340824-51.13608c1.713059-1.922717 3.845433-2.776689 6.39201-2.556804z" fill="#FFE0F5" p-id="38309"></path><path d="M439.771885 434.656679a123.058976 123.058976 0 0 0-23.011236 35.795256 76.440769 76.440769 0 0 0-10.227216 28.124844v-17.897628a213.452225 213.452225 0 0 1 10.227216-19.17603c-2.899416-2.597713-2.048-4.303101 2.556804-5.113608-1.421583-0.979256-2.272999-2.257658-2.556804-3.835206 7.084904-7.12837 14.755316-13.09595 23.011236-17.897628z" fill="#CF2D75" p-id="38310"></path><path d="M416.760649 452.554307c0.283805 1.577548 1.135221 2.85595 2.556804 3.835206-4.604804 0.810507-5.45622 2.515895-2.556804 5.113608a213.452225 213.452225 0 0 0-10.227216 19.17603v-7.670412c-12.101353 0.708235-24.033958-0.145738-35.795256-2.556804-2.60027 6.4636-5.58406 6.4636-8.948814 0-0.593179 3.162767-1.871581 5.719571-3.835206 7.670412v-10.227216c5.926672-4.308215 8.483476-10.275795 7.670412-17.897628 6.228375 0.467895 11.768969-1.237493 16.619226-5.113608 9.102222 7.588594 17.197064 6.734622 24.289638-2.556804 1.291186 5.801388 4.699406 9.212165 10.227216 10.227216z" fill="#FC0173" p-id="38311"></path><path d="M199.43231 449.997503h2.556804c-0.409089 4.34401 0.017898 8.606202 1.278402 12.78402a12.610157 12.610157 0 0 0 6.39201 2.556804c13.175211-4.589463 26.386217-5.440879 39.630462-2.556804 0.12784-5.737468 2.257658-9.99966 6.39201-12.78402v61.363296c-2.114477-13.170097-3.392879-26.805533-3.835206-40.908864l-2.556804 12.78402a20.275456 20.275456 0 0 0-8.948814-2.556804 358.397443 358.397443 0 0 0-40.908864 10.227216v-40.908864z" fill="#F80F93" p-id="38312"></path><path d="M406.533433 480.679151v40.908864c-5.709343-8.562737-9.971536-17.93598-12.78402-28.124844-6.619566-1.603116-13.011576-1.603116-19.17603 0-4.226397-0.818177-6.783201-3.374981-7.670412-7.670412-6.404794 4.548554-10.24 10.513578-11.505618 17.897628-0.80028-9.0562 0.053693-17.578027 2.556804-25.56804 1.963625-1.950841 3.242027-4.507645 3.835206-7.670412 3.364754 6.4636 6.348544 6.4636 8.948814 0 11.761298 2.411066 23.693903 3.265039 35.795256 2.556804v7.670412z" fill="#FA045F" p-id="38313"></path><path d="M756.815581 327.270911c2.776689 0.306816 4.482077 2.012205 5.113608 5.113608 1.219596 10.063581 3.7764 19.439381 7.670411 28.124844v89.48814c0.843745 50.726991-0.00767 101.011655-2.556803 150.851436a10121.619975 10121.619975 0 0 0-1.278402-227.555556 313.607351 313.607351 0 0 0-8.948814-46.022472z" fill="#D73B7F" p-id="38314"></path><path d="M600.850537 455.111111c11.462152 13.911571 17.429733 30.106367 17.897628 48.579276 0.87187 9.357903-0.830961 17.87973-5.113608 25.56804 4.055091-26.156105-0.204544-50.870172-12.78402-74.147316z" fill="#D2368D" p-id="38315"></path><path d="M255.681998 511.360799v46.022472h-2.556804v-5.113608-20.454432c0.823291-10.858747-1.306527-21.085963-6.39201-30.681648a175.069483 175.069483 0 0 0-42.187266 12.78402 49.535521 49.535521 0 0 0-2.556804 20.454432h-2.556804v-43.465668a358.397443 358.397443 0 0 1 40.908864-10.227216 20.275456 20.275456 0 0 1 8.948814 2.556804l2.556804-12.78402c0.442327 14.103331 1.720729 27.738767 3.835206 40.908864z" fill="#F70E6F" p-id="38316"></path><path d="M406.533433 521.588015v10.227216c-4.15225 0.357953-7.133483-1.347436-8.948814-5.113608l-2.556804 5.113608c-0.386077-7.82382-3.796854-13.788844-10.227216-17.897628l-2.556804 5.113608a100.175581 100.175581 0 0 1-17.897628-12.78402c-4.579236 7.286891-7.563026 14.957303-8.948814 23.011236v-25.56804c1.265618-7.38405 5.100824-13.349074 11.505618-17.897628 0.887211 4.295431 3.444015 6.852235 7.670412 7.670412 6.164454-1.603116 12.556464-1.603116 19.17603 0 2.812484 10.188864 7.074677 19.562107 12.78402 28.124844z" fill="#FB024C" p-id="38317"></path><path d="M659.657029 465.338327a25.107815 25.107815 0 0 0 7.670412 10.227216v35.795256c-2.546577 0.219885-4.676395-0.634087-6.39201-2.556804a128.354117 128.354117 0 0 0-28.124844 20.454432c-2.336919-9.421823-4.042307-8.570407-5.113608 2.556804-0.956245-5.090597-3.086062-9.352789-6.39201-12.78402v-15.340824c0.547156-4.203386-0.306816-8.038592-2.556804-11.505618 6.977518-11.482607 16.777748-20.431421 29.403246-26.846442 5.021563 5.594287 8.856769 5.594287 11.505618 0z" fill="#FC0181" p-id="38318"></path><path d="M416.760649 470.451935a39.420804 39.420804 0 0 0 2.556804 17.897628c-2.109363 2.265328-4.666167 3.116744-7.670412 2.556804v46.022472l-5.113608-15.340824v-23.011236a76.440769 76.440769 0 0 1 10.227216-28.124844z" fill="#FFDCEF" p-id="38319"></path><path d="M253.125194 531.815231c-1.444594-4.822132-4.001398-9.084325-7.670412-12.78402a99.344619 99.344619 0 0 1-17.897628 3.835206c-5.417868 6.118432-12.234307 9.526652-20.454432 10.227216a29.037623 29.037623 0 0 0-3.835206 8.948814 12.610157 12.610157 0 0 1-1.278402-7.670412 49.535521 49.535521 0 0 1 2.556804-20.454432 175.069483 175.069483 0 0 1 42.187266-12.78402c5.085483 9.595685 7.215301 19.822901 6.39201 30.681648z" fill="#FC0152" p-id="38320"></path><path d="M667.327441 475.565543l5.113608 15.340824a328.567211 328.567211 0 0 1-1.278402 40.908864c-0.521588 8.429783-2.651406 16.100195-6.39201 23.011236 1.621014-14.433159 2.474986-28.92001 2.556804-43.465668v-35.795256z" fill="#CD2E75" p-id="38321"></path><path d="M357.954157 467.895131v10.227216c-2.503111 7.990012-3.357084 16.51184-2.556804 25.56804v25.56804a106.695431 106.695431 0 0 0 2.556804 23.011236c-1.846012-1.068744-3.124414-2.771576-3.835206-5.113608a699.950662 699.950662 0 0 1-3.835206-39.630462c-0.010227-14.049638 2.546577-27.260644 7.670412-39.630462z" fill="#D02F51" p-id="38322"></path><path d="M253.125194 531.815231v20.454432h-2.556804a70.534552 70.534552 0 0 1-3.835206-12.78402 145.661124 145.661124 0 0 0-40.908864 17.897628 47.139795 47.139795 0 0 0-1.278402 15.340824c-2.53635 18.276035-3.387765 37.025079-2.556804 56.249688v15.340824c-2.531236-16.565533-3.385208-33.611745-2.556804-51.13608v-58.806492h2.556804a12.610157 12.610157 0 0 0 1.278402 7.670412c0.792609-3.236914 2.071011-6.220704 3.835206-8.948814 8.220125-0.700564 15.036564-4.108784 20.454432-10.227216a99.344619 99.344619 0 0 0 17.897628-3.835206c3.669014 3.699695 6.225818 7.961888 7.670412 12.78402z" fill="#F41838" p-id="38323"></path><path d="M746.588365 311.930087l10.227216 15.340824a313.607351 313.607351 0 0 1 8.948814 46.022472c1.278402 75.847591 1.705388 151.697738 1.278402 227.555556 1.393458 26.332524-1.163346 51.900564-7.670412 76.70412a2552.966232 2552.966232 0 0 0-1.278402-332.38452 132.667446 132.667446 0 0 1-11.505618-33.238452z" fill="#FFDFF7" p-id="38324"></path><path d="M406.533433 531.815231c0.690337 9.86415 4.098557 18.385978 10.227216 25.56804v5.113608c-5.384629-2.725553-9.219835-6.987745-11.505618-12.78402-2.682087 2.60027-5.665878 3.027256-8.948814 1.278402-7.522117-11.474936-16.895361-13.604754-28.124844-6.39201-2.932654-0.813064-5.065029-2.515895-6.39201-5.113608-1.996864 8.480919-0.718462 16.151331 3.835206 23.011236a131.851825 131.851825 0 0 0 2.556804 17.897628c-6.39201-8.079501-9.80023-17.455301-10.227216-28.124844a106.695431 106.695431 0 0 1-2.556804-23.011236c1.385788-8.053933 4.369578-15.724345 8.948814-23.011236a100.175581 100.175581 0 0 0 17.897628 12.78402l2.556804-5.113608c6.430362 4.108784 9.841139 10.073808 10.227216 17.897628l2.556804-5.113608c1.815331 3.766172 4.796564 5.471561 8.948814 5.113608z" fill="#F91837" p-id="38325"></path><path d="M406.533433 521.588015l5.113608 15.340824a137.453783 137.453783 0 0 0 5.113608 20.454432c-6.128659-7.182062-9.536879-15.70389-10.227216-25.56804v-10.227216z" fill="#D44059" p-id="38326"></path><path d="M779.826816 700.564295c3.628105 11.336869 2.776689 22.415501-2.556804 33.238452l1.278402 10.227216c1.835785-2.431521 3.965603-2.85595 6.39201-1.278402-4.024409 4.668724-6.154227 10.209318-6.39201 16.619226a207.965323 207.965323 0 0 1-14.062421 12.784019c0.048579-3.988614 0.899995-7.82382 2.556804-11.505617a999.370307 999.370307 0 0 1-10.227216-37.073658c-9.754207-0.644315-17.424619 3.617878-23.011236 12.78402-2.825268 2.812484-6.233488 4.517873-10.227216 5.113608a17151.450287 17151.450287 0 0 0 23.011236-25.56804c4.942302-2.91987 8.777508-7.179506 11.505618-12.78402a285.270292 285.270292 0 0 0 10.227216-38.35206 1977.905218 1977.905218 0 0 0 3.835205-132.953808c2.114477-13.170097 3.392879-26.805533 3.835206-40.908864 8.590861-4.77611 15.834287-11.16812 21.732834-19.17603 6.054512-2.188624 12.022092-4.320999 17.897628-6.39201 2.937768 32.323116 3.364754 73.23198 1.278402 122.726592-2.301124 3.247141-5.282357 5.803945-8.948814 7.670412a517.8244 517.8244 0 0 1-21.732834 46.022472c-1.275845 6.44826-0.848859 12.84027 1.278402 19.17603a274.42433 274.42433 0 0 1-10.227216 37.073658c0.317044 1.55198 1.168459 2.403396 2.556804 2.556804z" fill="#FD015E" p-id="38327"></path><path d="M667.327441 511.360799a409.799431 409.799431 0 0 1-2.556804 43.465668 263.105358 263.105358 0 0 1-7.670412 28.124844 159.217298 159.217298 0 0 1-23.011236 30.681648 103.356245 103.356245 0 0 0 10.227216-25.56804c-2.781803-7.665298-0.224999-13.203336 7.670412-16.619226a101.955116 101.955116 0 0 0-35.795256 2.556804 50.847161 50.847161 0 0 0-10.227216 8.948814l-2.556804-5.113608c-2.265328 2.109363-3.116744 4.666167-2.556804 7.670412a52.900275 52.900275 0 0 0-12.78402 2.556804 240.935311 240.935311 0 0 1 21.732834-25.56804 815.298317 815.298317 0 0 1 11.505618-43.465668c3.305948 3.431231 5.435765 7.693423 6.39201 12.78402 1.071301-11.127211 2.776689-11.978627 5.113608-2.556804a128.354117 128.354117 0 0 1 28.124844-20.454432c1.715615 1.922717 3.845433 2.776689 6.39201 2.556804z" fill="#F80864" p-id="38328"></path><path d="M416.760649 562.496879c2.9122 6.402237 4.617588 13.218677 5.113608 20.454432 5.619855-0.971586 9.882047 0.733803 12.78402 5.113608-5.857638 1.654252-12.676634 2.081238-20.454432 1.278402a183.875116 183.875116 0 0 1-23.011236-17.897628 188.04782 188.04782 0 0 0-25.56804-8.948814c-4.553668-6.859905-5.83207-14.530317-3.835206-23.011236 1.326981 2.597713 3.459356 4.300544 6.39201 5.113608 11.229483-7.212744 20.602727-5.082926 28.124844 6.39201 3.282936 1.748854 6.266727 1.321868 8.948814-1.278402 2.285783 5.796275 6.120989 10.058467 11.505618 12.78402z" fill="#FD2E21" p-id="38329"></path><path d="M672.441049 490.906367c3.35964 6.174682 5.065029 13.418107 5.113608 21.732834a311.725543 311.725543 0 0 1-11.505618 57.52809c-1.782092 5.32838-4.765883 9.590572-8.948814 12.78402a263.105358 263.105358 0 0 0 7.670412-28.124844c3.740604-6.911041 5.870422-14.581453 6.39201-23.011236 1.275845-13.609868 1.702831-27.245303 1.278402-40.908864z" fill="#FFDFF7" p-id="38330"></path><path d="M250.56839 552.269663v20.454432c-14.732305 0.309373-29.221713 3.72015-43.465668 10.227216a21.566642 21.566642 0 0 1-1.278402 10.227216 82.937608 82.937608 0 0 1-1.278402-20.454432 47.139795 47.139795 0 0 1 1.278402-15.340824 145.661124 145.661124 0 0 1 40.908864-17.897628 70.534552 70.534552 0 0 0 3.835206 12.78402z" fill="#FD0E19" p-id="38331"></path><path d="M416.760649 557.383271c8.355635 14.082876 18.582851 26.866896 30.681648 38.35206a30.024549 30.024549 0 0 1-12.78402-7.670412c-2.901973-4.379805-7.164165-6.085194-12.78402-5.113608-0.49602-7.235755-2.201408-14.052195-5.113608-20.454432v-5.113608z" fill="#E14C3F" p-id="38332"></path><path d="M250.56839 552.269663h2.556804v51.13608c-2.738337 9.214722-8.278931 16.885134-16.619226 23.011236l-2.556804-2.556804a436.305818 436.305818 0 0 1-24.289638 20.454432c-1.30397-6.095421-3.860774-11.209029-7.670412-15.340824-0.830961-19.224609 0.020454-37.973653 2.556804-56.249688a82.937608 82.937608 0 0 0 1.278402 20.454432 21.566642 21.566642 0 0 0 1.278402-10.227216c14.243955-6.507066 28.733363-9.917843 43.465668-10.227216v-20.454432z" fill="#FC3103" p-id="38333"></path><path d="M618.748165 503.690387h2.556804v15.340824a815.298317 815.298317 0 0 0-11.505618 43.465668 240.935311 240.935311 0 0 0-21.732834 25.56804c-7.979785 6.524964-16.50417 11.638572-25.56804 15.340824 24.908385-15.701333 41.100624-37.861154 48.579276-66.476904 2.311351-1.812774 3.162767-4.369578 2.556804-7.670412 4.282647-7.68831 5.985478-16.210137 5.113608-25.56804z" fill="#D32E67" p-id="38334"></path><path d="M634.088989 613.632959a45.771905 45.771905 0 0 0-15.340824 10.227216c-0.478122-6.939166-3.461913-8.644554-8.948814-5.113608-6.008489-2.567031-11.97607-5.123835-17.897628-7.670412-5.121278 1.833228-10.659316 2.684644-16.619226 2.556804 1.319311-3.216459-0.383521-5.773263-5.113608-7.670412-2.868734 2.889189-6.279511 4.594577-10.227216 5.113608a14.642816 14.642816 0 0 0 2.556804-7.670412c9.06387-3.702252 17.588255-8.81586 25.56804-15.340824a52.900275 52.900275 0 0 1 12.78402-2.556804c-0.55994-3.004245 0.291476-5.561049 2.556804-7.670412l2.556804 5.113608a50.847161 50.847161 0 0 1 10.227216-8.948814 101.955116 101.955116 0 0 1 35.795256-2.556804c-7.895411 3.41589-10.452215 8.953928-7.670412 16.619226a103.356245 103.356245 0 0 1-10.227216 25.56804z" fill="#FB054C" p-id="38335"></path><path d="M253.125194 557.383271h2.556804c-1.150562 38.531036 0.554826 76.883096 5.113607 115.05618-3.778956-2.42385-6.33576-5.83207-7.670411-10.227216v-58.806492-46.022472z" fill="#D76631" p-id="38336"></path><path d="M255.681998 554.826467h2.556803a694.284784 694.284784 0 0 0 7.670412 130.397004l-5.113608-7.670412v-5.113608a774.504509 774.504509 0 0 1-5.113607-115.05618v-2.556804z" fill="#FFE7CE" p-id="38337"></path><path d="M368.181373 580.394507c2.298567 2.485213 5.282357 4.188045 8.948814 5.113608 14.719521-4.320999 16.849338-1.339765 6.39201 8.948814 1.273288 2.960779 3.403106 5.090597 6.39201 6.39201 14.760429-11.707605 27.12002-9.575231 37.073658 6.39201a140.217688 140.217688 0 0 1 12.78402 6.39201 18.646772 18.646772 0 0 0 7.670412-5.113608c9.224949 3.196005 17.749333 7.458197 25.56804 12.78402a616.972145 616.972145 0 0 1 86.931336 29.403246c1.922717 1.715615 2.776689 3.845433 2.556804 6.39201-22.111241 6.394567-42.565673 2.559361-61.363296-11.505618-17.905298-2.428964-34.951511-7.118142-51.13608-14.062422 0.55994-3.004245-0.291476-5.561049-2.556804-7.670412-6.445703 6.629793-12.837713 6.629793-19.17603 0-7.125813 3.029813-13.090836 1.324424-17.897628-5.113608a18.531715 18.531715 0 0 1-6.39201 5.113608 5562.718282 5562.718282 0 0 0-25.56804-23.011236c-0.851416-2.556804-2.556804-4.262192-5.113608-5.113608-2.889189-4.640599-4.59202-9.754207-5.113608-15.340824z" fill="#FC5609" p-id="38338"></path><path d="M818.178876 611.076155a54.017598 54.017598 0 0 1-2.556804 23.011236c-17.910412 19.265518-23.02402 41.425338-15.340824 66.476904a240.67196 240.67196 0 0 1-12.78402 51.13608c-8.360749 12.630612-18.587965 23.709243-30.681647 33.238451a30.024549 30.024549 0 0 1 7.670412-12.78402 207.965323 207.965323 0 0 0 14.062421-12.784019c0.237783-6.409908 2.3676-11.950502 6.39201-16.619226-2.426407-1.577548-4.556225-1.153119-6.39201 1.278402l-1.278402-10.227216c5.333493-10.822951 6.184909-21.901583 2.556804-33.238452a26.884794 26.884794 0 0 1 6.39201-7.670412 314.021553 314.021553 0 0 1 20.454432-76.70412c2.838052-3.929808 6.673258-5.632639 11.505618-5.113608z" fill="#F90673" p-id="38339"></path><path d="M447.442297 595.735331c36.973943 23.427995 75.326002 25.984799 115.05618 7.670412a14.642816 14.642816 0 0 1-2.556804 7.670412c-9.861593 1.467605-19.237393 4.024409-28.124844 7.670412a184.171705 184.171705 0 0 1-28.124844 2.556804 155.492035 155.492035 0 0 1-48.579276-16.619226c-3.996285-1.940614-6.553089-4.924404-7.670412-8.948814z" fill="#D8574A" p-id="38340"></path><path d="M634.088989 613.632959c-5.965024 7.670412-12.78402 14.489408-20.454432 20.454432 0.409089-4.226397 2.11192-7.634617 5.113608-10.227216a45.771905 45.771905 0 0 1 15.340824-10.227216z" fill="#C4264B" p-id="38341"></path><path d="M618.748165 623.860175c-3.001688 2.592599-4.704519 6.000819-5.113608 10.227216-4.581793-0.342612-8.841428 0.508804-12.78402 2.556804-0.283805-1.577548-1.135221-2.85595-2.556804-3.835206-9.43972 0.010227-17.961548-2.546577-25.56804-7.670412a243.970237 243.970237 0 0 0-40.908864-6.39201c8.887451-3.646002 18.263251-6.202806 28.124844-7.670412 3.947705-0.519031 7.358482-2.224419 10.227216-5.113608 4.730087 1.897149 6.432919 4.453953 5.113608 7.670412 5.95991 0.12784 11.497948-0.723576 16.619226-2.556804 5.921558 2.546577 11.889139 5.103381 17.897628 7.670412 5.486901-3.530946 8.470692-1.825558 8.948814 5.113608z" fill="#FC2739" p-id="38342"></path><path d="M253.125194 603.405743v58.806492a63.764135 63.764135 0 0 1-1.278402 17.897628l-2.556804-5.113608a280.693613 280.693613 0 0 1-30.681648 33.238452 117.48003 117.48003 0 0 1-5.113608-25.56804 9.324664 9.324664 0 0 0-3.835206-2.556804c-1.012494-9.621253-3.569298-18.145638-7.670412-25.56804v-10.227216-15.340824c3.809638 4.131795 6.366442 9.245403 7.670412 15.340824a436.305818 436.305818 0 0 0 24.289638-20.454432l2.556804 2.556804c8.340295-6.126102 13.880889-13.796514 16.619226-23.011236z" fill="#FC5302" p-id="38343"></path><path d="M378.408589 600.848939c8.289159 7.412175 16.810986 15.082587 25.56804 23.011236a18.531715 18.531715 0 0 0 6.39201-5.113608c4.806792 6.438032 10.771815 8.143421 17.897628 5.113608 6.338317 6.629793 12.730327 6.629793 19.17603 0 2.265328 2.109363 3.116744 4.666167 2.556804 7.670412 16.184569 6.94428 33.230782 11.633458 51.13608 14.062422 18.797623 14.064979 39.252055 17.900185 61.363296 11.505618a131.851825 131.851825 0 0 0 17.897628-2.556804c-7.338027 5.865308-15.859855 9.276085-25.56804 10.227216a320.293393 320.293393 0 0 1-86.931336-1.278402 78.619166 78.619166 0 0 0-30.681648-11.505618c-3.152539-9.286312-9.968979-13.545948-20.454432-12.78402-15.287131-10.173523-28.071151-22.957543-38.35206-38.35206z" fill="#F96A0A" p-id="38344"></path><path d="M365.624569 562.496879a188.04782 188.04782 0 0 1 25.56804 8.948814 183.875116 183.875116 0 0 0 23.011236 17.897628c7.777798 0.802836 14.596794 0.37585 20.454432-1.278402a30.024549 30.024549 0 0 0 12.78402 7.670412c1.117323 4.024409 3.674127 7.0082 7.670412 8.948814a155.492035 155.492035 0 0 0 48.579276 16.619226c27.048429 5.829513 52.616469 16.056729 76.70412 30.681648v2.556804a131.851825 131.851825 0 0 1-17.897628 2.556804c0.219885-2.546577-0.634087-4.676395-2.556804-6.39201a616.972145 616.972145 0 0 0-86.931336-29.403246c-7.818707-5.325823-16.343091-9.588015-25.56804-12.78402a18.646772 18.646772 0 0 1-7.670412 5.113608 140.217688 140.217688 0 0 0-12.78402-6.39201c-9.953638-15.967241-22.313228-18.099615-37.073658-6.39201-2.988904-1.301413-5.118722-3.431231-6.39201-6.39201 10.457328-10.288579 8.327511-13.269813-6.39201-8.948814-3.666457-0.925563-6.650247-2.628395-8.948814-5.113608a131.851825 131.851825 0 0 1-2.556804-17.897628z" fill="#FC4A1A" p-id="38345"></path><path d="M531.816829 618.746567a243.970237 243.970237 0 0 1 40.908864 6.39201c7.606492 5.123835 16.12832 7.680639 25.56804 7.670412 1.421583 0.979256 2.272999 2.257658 2.556804 3.835206-7.844275 3.90424-14.663271 9.017848-20.454432 15.340824-24.08765-14.624919-49.65569-24.852135-76.70412-30.681648a184.171705 184.171705 0 0 0 28.124844-2.556804z" fill="#FC3A2D" p-id="38346"></path><path d="M613.634557 634.087391c-7.918422 8.662452-17.294222 15.481448-28.124844 20.454432h-5.113608v-2.556804c5.791161-6.322976 12.610157-11.436584 20.454432-15.340824 3.942592-2.048 8.202227-2.899416 12.78402-2.556804z" fill="#DC4947" p-id="38347"></path><path d="M820.73568 368.179775a5355.865169 5355.865169 0 0 1 1.278402 286.362048 1018.965653 1018.965653 0 0 0-6.39201 40.908864c-5.277243 20.781703-14.653044 39.533303-28.124844 56.249688a240.67196 240.67196 0 0 0 12.78402-51.13608c-7.683196-25.051566-2.569588-47.211386 15.340824-66.476904a54.017598 54.017598 0 0 0 2.556804-23.011236 3043.241069 3043.241069 0 0 0 2.556804-176.419476v-66.476904z" fill="#E9157B" p-id="38348"></path><path d="M373.294981 595.735331c2.556804 0.851416 4.262192 2.556804 5.113608 5.113608 10.280909 15.394517 23.064929 28.178537 38.35206 38.35206 25.93622 21.865788 56.190881 32.944419 90.766542 33.238452a699.950662 699.950662 0 0 0 39.630462-3.835206c3.162767-0.593179 5.719571-1.871581 7.670412-3.835206 9.708185-0.951131 18.230012-4.361908 25.56804-10.227216h5.113608c-0.189203 4.886052-2.746007 7.869843-7.670412 8.948814-45.191511 18.258137-90.362567 18.258137-135.510612 0a441.700674 441.700674 0 0 1-56.249688-39.630462 111.796255 111.796255 0 0 0-7.670412-14.062422c-3.180664-1.165903-5.310482 0.112499-6.39201 3.835206l-3.835206-3.835206c4.231511-3.692025 5.936899-8.381203 5.113608-14.062422z" fill="#FFF1D2" p-id="38349"></path><path d="M416.760649 639.200999c10.485453-0.761928 17.301893 3.497708 20.454432 12.78402a78.619166 78.619166 0 0 1 30.681648 11.505618 320.293393 320.293393 0 0 0 86.931336 1.278402c-1.950841 1.963625-4.507645 3.242027-7.670412 3.835206a699.950662 699.950662 0 0 1-39.630462 3.835206c-34.57566-0.294032-64.830322-11.372664-90.766542-33.238452z" fill="#E28535" p-id="38350"></path><path d="M196.875506 593.178527h2.556804c-0.828404 17.524335 0.025568 34.570547 2.556804 51.13608v10.227216a225.402727 225.402727 0 0 0 15.340824 69.033708c-4.101114-2.012205-5.803945-5.420424-5.113608-10.227216h-7.670412l-2.556804-35.795256a12.615271 12.615271 0 0 1-7.670412-1.278402c1.922717-27.089338 2.774132-54.787196 2.556804-83.09613z" fill="#FFEDD4" p-id="38351"></path><path d="M201.989114 654.541823c4.101114 7.422402 6.657918 15.946787 7.670412 25.56804a9.324664 9.324664 0 0 1 3.835206 2.556804 117.48003 117.48003 0 0 0 5.113608 25.56804 280.693613 280.693613 0 0 0 30.681648-33.238452l2.556804 5.113608c1.270732-5.906217 1.695161-11.871241 1.278402-17.897628 1.334652 4.395146 3.891456 7.803366 7.670411 10.227216v5.113608c2.454532 9.447391 2.454532 18.820634 0 28.124844a252.530417 252.530417 0 0 1-25.568039 26.846442c5.76815 3.832649 5.76815 8.094841 0 12.78402 1.421583 2.584929 3.124414 4.714747 5.113608 6.39201h-5.113608a147.747476 147.747476 0 0 1-17.897628-28.124844 225.402727 225.402727 0 0 1-15.340824-69.033708z" fill="#F8790A" p-id="38352"></path><path d="M769.5996 449.997503h2.556804v81.817728a1977.905218 1977.905218 0 0 1-3.835205 132.953808 285.270292 285.270292 0 0 1-10.227216 38.35206c-2.72811 5.604514-6.563316 9.86415-11.505618 12.78402a118.865818 118.865818 0 0 0 12.78402-38.35206c6.507066-24.803556 9.06387-50.371596 7.670412-76.70412a2227.372584 2227.372584 0 0 0 2.556803-150.851436z" fill="#D9205D" p-id="38353"></path><path d="M260.795605 677.553059l5.113608 7.670412c0.214772 7.228085 1.917603 14.047081 5.113608 20.454432 0.130397 7.775241 2.687201 14.594237 7.670412 20.454432a80.930517 80.930517 0 0 0-2.556804 17.897628 18.646772 18.646772 0 0 1-7.670412 5.113608c-6.4636 22.075446-15.839401 22.926861-28.124843 2.556804-1.989194-1.677263-3.692025-3.807081-5.113608-6.39201 5.76815-4.689179 5.76815-8.951371 0-12.78402a252.530417 252.530417 0 0 0 25.568039-26.846442c2.454532-9.30421 2.454532-18.677453 0-28.124844z" fill="#FA9107" p-id="38354"></path><path d="M764.485993 772.154806a30.024549 30.024549 0 0 0-7.670412 12.78402 64.073508 64.073508 0 0 1-20.454432 12.78402v-2.556804c7.051665-3.671571 11.311301-8.358192 12.78402-14.062422-2.124704-14.788554-4.257079-29.704949-6.39201-44.744069-2.521009-1.715615-5.504799-1.715615-8.948814 0 5.586617-9.166142 13.257029-13.428335 23.011236-12.78402 3.162767 12.390272 6.570986 24.749863 10.227216 37.073658a28.602966 28.602966 0 0 0-2.556804 11.505617z" fill="#F81147" p-id="38355"></path><path d="M736.361149 795.166042c0.357953-4.15225-1.347436-7.133483-5.113608-8.948814a18.646772 18.646772 0 0 1 7.670412-5.113608 74.515496 74.515496 0 0 0-12.78402-6.39201l12.78402-5.113608c-2.237203-5.811615-6.499396-8.368419-12.78402-7.670411-0.547156-4.203386 0.306816-8.038592 2.556804-11.505618-1.902262-2.656519-4.459066-3.934921-7.670412-3.835206l2.556804-5.113608c3.993728-0.595735 7.401948-2.301124 10.227216-5.113608 3.444015-1.715615 6.427805-1.715615 8.948814 0 2.134931 15.039121 4.267306 29.955516 6.39201 44.744069-1.472719 5.70423-5.732355 10.390851-12.78402 14.062422z" fill="#FB1937" p-id="38356"></path><path d="M271.022821 705.677903c7.517004 10.11216 15.187416 20.339376 23.011236 30.681648a14.256739 14.256739 0 0 0 2.556804 7.670412 71.539376 71.539376 0 0 1 20.454432 15.340824l-7.670412 5.113608c2.927541 3.556514 2.927541 6.964734 0 10.227215a111.796255 111.796255 0 0 0-14.062422 7.670412c-1.2963 3.824979-0.017898 6.808769 3.835206 8.948814a82.998971 82.998971 0 0 1-20.454432 1.278402l-20.454432-10.227216a10995.346377 10995.346377 0 0 0-23.011235-30.681647h5.113608c12.285443 20.370057 21.661243 19.518642 28.124843-2.556804a18.646772 18.646772 0 0 0 7.670412-5.113608c0.158522-5.880649 1.009938-11.845673 2.556804-17.897628-4.983211-5.860195-7.540015-12.679191-7.670412-20.454432z" fill="#F9AB11" p-id="38357"></path><path d="M723.577129 741.473159l-2.556804 5.113608a152.411086 152.411086 0 0 1-23.011236 12.78402h-10.227216l35.795256-17.897628z" fill="#D85237" p-id="38358"></path><path d="M306.818077 744.029963a521.894831 521.894831 0 0 0 89.48814 19.17603c82.666587 1.278402 165.33573 1.705388 248.009988 1.278402-9.710742 2.513338-19.937958 3.367311-30.681648 2.556804-86.962017 0.667326-173.893353-0.186647-260.794008-2.556804a1098.443905 1098.443905 0 0 1-38.35206-14.062422c-3.686911-0.963915-6.243715-3.093733-7.670412-6.39201z" fill="#FEFAC8" p-id="38359"></path><path d="M352.840549 764.484395c86.900654 2.370157 173.83199 3.22413 260.794008 2.556804v2.556803h-232.669164c-9.938297-0.373293-19.314097-2.078682-28.124844-5.113607z" fill="#F3C24D" p-id="38360"></path><path d="M217.329938 723.575531a147.747476 147.747476 0 0 0 17.897628 28.124844c7.731775 10.273238 15.402187 20.500454 23.011235 30.681647-11.978627-3.03237-19.222052-10.702782-21.732833-23.011235a64.618107 64.618107 0 0 0-15.340824-15.340824 87.146107 87.146107 0 0 1-3.835206-20.454432z" fill="#FEF4D1" p-id="38361"></path><path d="M294.034057 736.359551a30.024549 30.024549 0 0 0 12.78402 7.670412c1.426697 3.298277 3.983501 5.428095 7.670412 6.39201a1098.443905 1098.443905 0 0 0 38.35206 14.062422c8.810747 3.034926 18.186547 4.740315 28.124844 5.113607-10.802497 2.722996-21.881129 3.147426-33.238452 1.278402a531.687391 531.687391 0 0 1-29.403246 21.732834c-1.705388 1.705388-1.705388 3.40822 0 5.113608 10.493124 3.809638 10.92011 7.220414 1.278402 10.227216-4.33634-0.473009-7.744559-2.605383-10.227216-6.39201a82.998971 82.998971 0 0 0-20.454432-1.278402c-4.423271-1.344879-7.834047-3.901683-10.227216-7.670412a82.998971 82.998971 0 0 0 20.454432-1.278402c-3.853104-2.140045-5.131506-5.123835-3.835206-8.948814a111.796255 111.796255 0 0 1 14.062422-7.670412c2.927541-3.262482 2.927541-6.670702 0-10.227215l7.670412-5.113608a71.539376 71.539376 0 0 0-20.454432-15.340824 14.256739 14.256739 0 0 1-2.556804-7.670412z" fill="#FBBC10" p-id="38362"></path><path d="M380.965393 769.598002h69.033708a729.537998 729.537998 0 0 0 61.363296 5.113608c0.457668 5.384629 3.014472 9.644265 7.670412 12.78402a129.297578 129.297578 0 0 1 21.732834 12.78402 27.894732 27.894732 0 0 0 11.505618 12.78402 9.324664 9.324664 0 0 1-2.556804 3.835206c7.62439 1.273288 15.294801 1.700275 23.011236 1.278402v2.556804a6667.173233 6667.173233 0 0 1-224.998752-2.556804 74.84788 74.84788 0 0 1-28.124844-10.227216c9.641708-3.006801 9.214722-6.417578-1.278402-10.227216-1.705388-1.705388-1.705388-3.40822 0-5.113608a531.687391 531.687391 0 0 0 29.403246-21.732834c11.357323 1.869024 22.435955 1.444594 33.238452-1.278402z" fill="#FDCA03" p-id="38363"></path><path d="M449.999101 769.598002h102.27216a47.23184 47.23184 0 0 1-5.113608 8.948814 155.187775 155.187775 0 0 1 12.78402 19.17603 22.76834 22.76834 0 0 0 10.227216 7.670412c2.434077 3.950262 3.285493 8.212454 2.556804 12.78402a104.609079 104.609079 0 0 1-23.011236-1.278402 9.324664 9.324664 0 0 0 2.556804-3.835206 27.894732 27.894732 0 0 1-11.505618-12.78402 129.297578 129.297578 0 0 0-21.732834-12.78402c-4.65594-3.139755-7.212744-7.399391-7.670412-12.78402a729.537998 729.537998 0 0 1-61.363296-5.113608z" fill="#FCBC06" p-id="38364"></path><path d="M552.271261 769.598002h33.238452c-2.965893 4.354237-1.260504 6.057069 5.113608 5.113608a357.852844 357.852844 0 0 0 16.619226 38.35206c8.087171 4.955086 17.035985 7.51189 26.846442 7.670412h20.454432c-25.959231 2.541463-52.378687 3.395436-79.260924 2.556804 0-1.705388-0.851416-2.556804-2.556804-2.556804v-2.556804c0.728689-4.571566-0.122727-8.833758-2.556804-12.78402a22.76834 22.76834 0 0 1-10.227216-7.670412 155.187775 155.187775 0 0 0-12.78402-19.17603 47.23184 47.23184 0 0 0 5.113608-8.948814z" fill="#FBA50F" p-id="38365"></path><path d="M585.509713 769.598002h28.124844c6.992859 16.013263 13.811855 33.059476 20.454432 51.13608-9.810457-0.158522-18.759271-2.715326-26.846442-7.670412a357.852844 357.852844 0 0 1-16.619226-38.35206c-6.374112 0.943461-8.079501-0.759371-5.113608-5.113608z" fill="#FC9203" p-id="38366"></path><path d="M672.441049 761.927591c-6.338317 3.311061-13.157313 5.867865-20.454432 7.670411a63.753908 63.753908 0 0 0-17.897628 1.278402c-4.566452 0.501134-7.974672 2.630951-10.227216 6.39201a526.901054 526.901054 0 0 0 17.897628 39.630462 74.4797 74.4797 0 0 0 23.011236-1.278402l40.908864-5.113608c-16.112979 6.458487-33.156634 9.869263-51.13608 10.227216h-20.454432c-6.642577-18.076604-13.461573-35.122816-20.454432-51.13608v-2.556803c10.74369 0.810507 20.970906-0.043466 30.681648-2.556804a184.171705 184.171705 0 0 0 28.124844-2.556804z" fill="#EF801C" p-id="38367"></path><path d="M651.986617 769.598002c-2.835496 2.019875-6.243715 3.298277-10.227216 3.835206 8.516714 2.030102 13.203336 7.570697 14.062422 16.619226a31.0396 31.0396 0 0 1 11.505618 8.948814l-7.670412 6.39201c2.889189 2.868734 4.594577 6.279511 5.113608 10.227216a74.4797 74.4797 0 0 1-23.011236 1.278402 526.901054 526.901054 0 0 1-17.897628-39.630462c2.252544-3.761059 5.660764-5.890876 10.227216-6.39201a63.753908 63.753908 0 0 1 17.897628-1.278402z" fill="#FD7401" p-id="38368"></path><path d="M698.009089 759.370787h7.670412c7.171835 8.307056 12.285443 18.107286 15.340824 29.403245a121.445633 121.445633 0 0 0-2.556804 14.062422 14.642816 14.642816 0 0 1-7.670412 2.556804c-3.380095 0.434657-6.363885-0.416759-8.948814-2.556804a80.314327 80.314327 0 0 0-8.948814-17.897628c1.101983-2.027546 1.955955-4.15992 2.556804-6.39201a701.234177 701.234177 0 0 0-10.227216-10.227216c6.228375-0.526702 10.48801-3.510492 12.78402-8.948813z" fill="#FD4205" p-id="38369"></path><path d="M721.020325 746.586767c3.211346-0.099715 5.76815 1.178687 7.670412 3.835206-2.249988 3.467026-3.10396 7.302232-2.556804 11.505618 6.284624-0.698007 10.546816 1.858797 12.78402 7.670411l-12.78402 5.113608a74.515496 74.515496 0 0 1 12.78402 6.39201 18.646772 18.646772 0 0 0-7.670412 5.113608c3.766172 1.815331 5.471561 4.796564 5.113608 8.948814v2.556804c-6.872689-0.853973-12.837713 0.848859-17.897628 5.113608a121.445633 121.445633 0 0 1 2.556804-14.062422c-3.055381-11.29596-8.168989-21.09619-15.340824-29.403245h-7.670412a152.411086 152.411086 0 0 0 23.011236-12.78402z" fill="#FB311F" p-id="38370"></path><path d="M687.781873 759.370787h10.227216c-2.29601 5.438322-6.555645 8.422112-12.78402 8.948813a701.234177 701.234177 0 0 1 10.227216 10.227216 29.290747 29.290747 0 0 1-2.556804 6.39201 80.314327 80.314327 0 0 1 8.948814 17.897628c2.584929 2.140045 5.568719 2.991461 8.948814 2.556804l-5.113608 5.113608-40.908864 5.113608c-0.519031-3.947705-2.224419-7.358482-5.113608-10.227216l7.670412-6.39201a31.0396 31.0396 0 0 0-11.505618-8.948814c-0.859086-9.048529-5.545708-14.589124-14.062422-16.619226 3.983501-0.536929 7.39172-1.815331 10.227216-3.835206 7.297119-1.802547 14.116115-4.359351 20.454432-7.670411a49.141773 49.141773 0 0 1 15.340824-2.556804z" fill="#FB5904" p-id="38371"></path><path d="M736.361149 797.722846c-2.019875 2.30368-4.576679 4.009069-7.670412 5.113608a127.285373 127.285373 0 0 1-23.011236 7.670412l5.113608-5.113608a14.642816 14.642816 0 0 0 7.670412-2.556804c5.059915-4.264749 11.024939-5.967581 17.897628-5.113608z" fill="#D15439" p-id="38372"></path><path d="M288.920449 800.27965a82.998971 82.998971 0 0 1 20.454432 1.278402c2.482657 3.786627 5.890876 5.919001 10.227216 6.39201a74.84788 74.84788 0 0 0 28.124844 10.227216h-20.454432a796.308934 796.308934 0 0 0-38.35206-17.897628z" fill="#EECB48" p-id="38373"></path><path d="M728.690737 802.836454c-3.193448 4.182931-7.45564 7.166722-12.78402 8.948814-31.814312 12.420954-65.052764 17.534562-99.715356 15.340824a3943.614482 3943.614482 0 0 1-271.021224-2.556804 701.794117 701.794117 0 0 0-17.897628-6.39201h20.454432c6.312749 2.088909 13.129189 3.367311 20.454432 3.835206 69.028594 1.278402 138.062302 1.705388 207.101124 1.278402 26.882237 0.838632 53.301693-0.015341 79.260924-2.556804 17.979446-0.357953 35.023101-3.768729 51.13608-10.227216a127.285373 127.285373 0 0 0 23.011236-7.670412z" fill="#FFF7CD" p-id="38374"></path><path d="M347.726941 818.177278a6667.173233 6667.173233 0 0 0 224.998752 2.556804c1.705388 0 2.556804 0.851416 2.556804 2.556804-69.038821 0.426986-138.072529 0-207.101124-1.278402-7.325243-0.467895-14.141683-1.746297-20.454432-3.835206z" fill="#EDCC39" p-id="38375"></path></svg>